<svg width="287" height="287" viewBox="0 0 397 397" fill="none" xmlns="http://www.w3.org/2000/svg">
<g clip-path="url(#clip0_512_312)">
<path d="M134.612 14.0023C138.957 17.4103 141.358 21.1655 142.749 26.5171C142.685 26.9638 142.621 27.4104 142.555 27.8706C143.257 27.7431 143.959 27.6156 144.682 27.4842C145.743 27.5791 146.801 27.7132 147.855 27.8707C148.505 27.9659 149.155 28.0611 149.825 28.1592C150.537 28.2668 151.249 28.3744 151.983 28.4853C153.541 28.7148 155.099 28.944 156.657 29.173C157.486 29.2959 158.315 29.4188 159.168 29.5454C163.569 30.1935 167.973 30.8168 172.377 31.4431C177.976 32.2393 183.574 33.043 189.166 33.8827C193.688 34.5615 198.214 35.2077 202.743 35.8357C204.459 36.079 206.174 36.333 207.886 36.5984C218.383 38.2175 226.274 38.3886 236.198 34.4216C251.549 28.8358 268.742 30.9784 284.448 33.2488C286.405 33.5303 288.364 33.8036 290.322 34.0772C294.944 34.7232 299.563 35.3831 304.182 36.0522C308.919 36.7382 313.66 37.3992 318.403 38.0483C322.509 38.6112 326.612 39.19 330.714 39.7812C333.15 40.1321 335.586 40.4771 338.025 40.8066C340.739 41.1741 343.448 41.5746 346.157 41.9782C346.949 42.0808 347.741 42.1835 348.556 42.2893C354.632 43.2372 359.682 45.6337 363.771 50.3574C364.678 51.6317 365.332 52.8742 365.966 54.303C366.183 54.7631 366.4 55.2232 366.624 55.6973C368.598 60.9136 367.385 66.3077 366.253 71.6078C365.934 72.2458 365.615 72.8838 365.286 73.5411C366.093 73.8703 366.093 73.8703 366.917 74.2061C372.504 77.3782 375.086 81.6366 377.078 87.6578C377.555 90.2841 377.161 92.6033 376.774 95.2104C376.707 95.701 376.639 96.1917 376.57 96.6971C376.256 98.8604 375.933 100.577 374.948 102.545C375.756 102.874 375.756 102.874 376.579 103.21C382.166 106.382 384.748 110.641 386.74 116.662C387.787 122.427 386.402 128.998 383.202 133.851C379.794 138.196 376.039 140.596 370.687 141.988C370.241 141.924 369.794 141.86 369.334 141.794C369.461 142.496 369.589 143.198 369.72 143.921C369.625 144.982 369.491 146.04 369.334 147.094C369.239 147.744 369.143 148.394 369.045 149.064C368.938 149.776 368.83 150.488 368.719 151.222C368.49 152.78 368.26 154.338 368.031 155.896C367.909 156.725 367.786 157.553 367.659 158.407C367.011 162.808 366.388 167.212 365.761 171.616C364.965 177.215 364.161 182.813 363.322 188.405C362.643 192.927 361.997 197.453 361.369 201.982C361.125 203.698 360.871 205.413 360.606 207.125C358.987 217.622 358.816 225.513 362.783 235.437C368.369 250.788 366.226 267.981 363.956 283.686C363.674 285.644 363.401 287.602 363.127 289.561C362.481 294.183 361.821 298.802 361.152 303.421C360.466 308.158 359.805 312.899 359.156 317.642C358.593 321.748 358.014 325.851 357.423 329.953C357.072 332.389 356.727 334.825 356.398 337.264C356.03 339.978 355.63 342.687 355.226 345.396C355.124 346.188 355.021 346.979 354.915 347.795C353.967 353.87 351.571 358.921 346.847 363.01C345.573 363.917 344.33 364.571 342.901 365.205C342.441 365.422 341.981 365.639 341.507 365.863C336.291 367.837 330.897 366.624 325.597 365.492C324.959 365.173 324.321 364.853 323.663 364.525C323.334 365.332 323.334 365.332 322.998 366.156C319.826 371.743 315.568 374.324 309.547 376.316C306.92 376.793 304.601 376.4 301.994 376.013C301.503 375.945 301.013 375.878 300.507 375.808C298.344 375.495 296.627 375.171 294.659 374.187C294.33 374.994 294.33 374.994 293.994 375.818C290.822 381.405 286.564 383.987 280.542 385.979C274.777 387.026 268.206 385.641 263.353 382.441C259.009 379.033 256.608 375.278 255.217 369.926C255.28 369.479 255.344 369.033 255.41 368.573C254.708 368.7 254.006 368.828 253.283 368.959C251.253 368.72 249.245 368.444 247.225 368.136C245.941 367.945 244.656 367.755 243.372 367.565C242.689 367.463 242.007 367.361 241.304 367.256C237.671 366.718 234.035 366.205 230.399 365.688C225.78 365.032 221.163 364.368 216.551 363.669C212.819 363.105 209.083 362.57 205.343 362.055C203.93 361.855 202.517 361.645 201.107 361.422C191.491 359.916 184.466 360.479 175.367 363.962C170.763 365.553 165.871 366.201 161.056 366.816C160.533 366.886 160.01 366.956 159.472 367.029C150.718 368.102 142.235 367.186 133.546 366.031C133 365.963 132.455 365.896 131.893 365.826C130.324 365.626 128.76 365.401 127.196 365.169C126.724 365.11 126.252 365.052 125.766 364.992C123.181 364.572 122.156 364.07 120.353 362.126C118.99 359.782 118.718 358.66 119.101 355.98C120.503 353.177 121.178 351.836 124.032 350.471C125.669 350.519 127.305 350.643 128.934 350.808C129.934 350.902 130.933 350.996 131.932 351.09C133.49 351.244 135.047 351.4 136.605 351.559C146.022 352.502 155.255 352.745 164.612 351.01C165.109 350.921 165.607 350.831 166.12 350.739C168.825 350.211 171.279 349.621 173.766 348.415C184.424 343.429 195.27 346.127 206.393 348.014C209.079 348.463 211.77 348.875 214.461 349.291C219.707 350.108 224.946 350.963 230.181 351.843C230.022 351.365 229.862 350.886 229.698 350.393C229.933 348.299 230.207 346.225 230.514 344.141C230.606 343.494 230.699 342.847 230.794 342.18C231.101 340.035 231.414 337.89 231.726 335.745C231.94 334.26 232.153 332.775 232.366 331.29C232.928 327.377 233.495 323.464 234.062 319.552C234.64 315.561 235.214 311.57 235.788 307.579C236.917 299.744 238.049 291.91 239.184 284.076C238.453 283.979 237.722 283.882 236.968 283.782C230.078 282.867 223.191 281.933 216.306 280.982C212.766 280.494 209.225 280.012 205.683 279.544C202.264 279.093 198.848 278.625 195.433 278.145C194.129 277.965 192.825 277.791 191.52 277.623C189.692 277.387 187.869 277.129 186.044 276.867C185.504 276.802 184.964 276.737 184.408 276.67C181.662 276.252 180.463 275.82 178.552 273.754C177.507 271.952 176.688 270.252 175.968 268.301C172.119 258.927 165.156 251.532 155.979 247.109C146.655 243.344 136.518 242.051 126.662 240.359C126.603 241.058 126.543 241.757 126.481 242.477C126.381 243.403 126.28 244.328 126.178 245.253C126.123 245.943 126.123 245.943 126.067 246.646C125.779 249.081 125.354 250.357 123.664 252.151C120.377 253.932 118.057 253.413 114.452 252.846C113.766 252.752 113.079 252.657 112.372 252.56C110.105 252.245 107.842 251.907 105.578 251.569C104 251.347 102.423 251.127 100.845 250.909C96.6903 250.331 92.5387 249.734 88.3876 249.131C81.7481 248.169 75.106 247.226 68.4615 246.299C66.1431 245.972 63.8269 245.631 61.5106 245.29C60.0847 245.088 58.6588 244.886 57.2329 244.685C56.5917 244.587 55.9506 244.489 55.29 244.388C51.5101 243.87 48.7577 243.92 45.1648 245.275C43.7734 247.284 43.5165 249.548 43.5201 251.945C44.7824 254.366 45.9285 255.235 48.4498 256.103C49.4564 256.307 50.4699 256.478 51.4865 256.624C52.3838 256.756 52.3838 256.756 53.2992 256.891C53.9406 256.984 54.582 257.076 55.2428 257.172C56.6046 257.379 57.9663 257.587 59.3278 257.796C61.471 258.123 63.6143 258.445 65.7603 258.752C67.8339 259.051 69.9033 259.371 71.9732 259.694C72.614 259.781 73.2548 259.868 73.9151 259.957C77.0248 260.461 78.4113 260.731 80.6685 263.049C81.7918 265.168 82.0154 266.107 81.6432 268.447C81.5365 269.286 81.5365 269.286 81.4277 270.142C80.4229 272.508 79.0367 273.333 76.8688 274.669C74.764 274.796 74.764 274.796 72.4629 274.462C71.5968 274.345 70.7308 274.228 69.8385 274.107C68.9006 273.964 67.9627 273.82 67.0248 273.677C66.0542 273.542 65.0834 273.408 64.1124 273.277C61.5599 272.928 59.0104 272.56 56.4612 272.187C52.3864 271.591 48.3091 271.015 44.2293 270.455C42.8106 270.256 41.3943 270.044 39.9776 269.832C33.7439 268.918 33.7439 268.918 27.7588 270.407C26.3674 272.416 26.1106 274.68 26.1141 277.077C27.3753 279.496 28.5138 280.391 31.0438 281.235C32.4645 281.501 33.8923 281.729 35.3229 281.934C36.1921 282.061 37.0612 282.188 37.9567 282.319C38.4195 282.385 38.8823 282.451 39.3592 282.52C41.3119 282.802 43.2628 283.095 45.2139 283.389C48.8431 283.934 52.4728 284.475 56.1061 284.993C58.6368 285.354 61.1646 285.732 63.6913 286.121C64.6527 286.265 65.6149 286.404 66.578 286.537C67.9263 286.723 69.2714 286.932 70.6162 287.142C71.7643 287.31 71.7643 287.31 72.9355 287.481C75.5554 288.429 76.4131 289.719 77.8324 292.071C78.0398 293.827 78.0398 293.827 77.7714 295.515C77.6647 296.354 77.6647 296.354 77.5558 297.211C76.5135 299.664 75.3162 300.426 72.9969 301.738C70.652 301.896 68.428 301.533 66.1135 301.168C65.1225 301.035 65.1225 301.035 64.1115 300.899C62.0035 300.613 59.8995 300.306 57.7951 299.995C55.6947 299.692 53.594 299.394 51.4912 299.107C50.1848 298.929 48.8797 298.74 47.5764 298.541C43.7822 298.014 41.0283 298.05 37.421 299.411C36.0296 301.42 35.7728 303.684 35.7764 306.081C37.0387 308.502 38.1848 309.372 40.706 310.239C41.7127 310.443 42.7262 310.615 43.7428 310.761C44.6401 310.893 44.6401 310.893 45.5555 311.028C46.1969 311.12 46.8383 311.213 47.4991 311.308C48.8609 311.515 50.2226 311.724 51.5841 311.933C53.7272 312.259 55.8706 312.581 58.0166 312.888C60.0902 313.187 62.1596 313.507 64.2295 313.831C64.8703 313.917 65.5111 314.004 66.1713 314.094C69.2811 314.597 70.6676 314.868 72.9248 317.186C74.048 319.304 74.2716 320.243 73.8995 322.583C73.7928 323.423 73.7928 323.423 73.6839 324.279C72.6012 326.828 71.6226 327.566 69.1251 328.806C66.2686 328.87 63.5108 328.454 60.6903 328.031C53.7804 326.944 53.7804 326.944 47.0833 328.415C45.6919 330.424 45.4351 332.688 45.4386 335.085C46.7 337.505 47.8374 338.401 50.3683 339.243C51.838 339.516 53.3141 339.756 54.7929 339.973C55.6525 340.11 56.512 340.246 57.3976 340.386C58.7566 340.601 60.1155 340.81 61.4775 341.005C62.7982 341.197 64.1157 341.41 65.4329 341.625C66.6123 341.803 66.6123 341.803 67.8156 341.985C70.5001 342.943 71.348 344.183 72.7955 346.595C73.3468 349.421 72.981 350.573 71.6826 353.168C70.1837 355.198 70.1837 355.198 67.96 356.261C66.1166 356.166 64.356 356.005 62.5309 355.765C61.9961 355.697 61.4614 355.628 60.9105 355.557C59.7761 355.408 58.6423 355.255 57.509 355.098C55.7999 354.867 54.0891 354.665 52.3763 354.464C45.087 353.518 39.2084 351.931 34.2098 346.087C33.2881 344.814 32.6368 343.576 31.9996 342.14C31.7823 341.68 31.565 341.22 31.3412 340.746C29.3672 335.53 30.5801 330.136 31.7127 324.835C32.0318 324.197 32.3509 323.559 32.6797 322.902C31.8723 322.573 31.8723 322.573 31.0485 322.237C25.4619 319.065 22.88 314.807 20.888 308.785C20.4109 306.159 20.8043 303.84 21.1914 301.233C21.2589 300.742 21.3264 300.252 21.396 299.746C21.7095 297.583 22.0329 295.866 23.0175 293.898C22.21 293.569 22.21 293.569 21.3862 293.233C15.7996 290.061 13.2177 285.803 11.2257 279.781C10.1785 274.016 11.5637 267.445 14.7635 262.592C18.1714 258.247 21.9266 255.847 27.2783 254.455C27.7249 254.519 28.1715 254.583 28.6317 254.649C28.5042 253.947 28.3767 253.245 28.2454 252.522C28.3402 251.461 28.4743 250.403 28.6318 249.349C28.727 248.699 28.8222 248.049 28.9203 247.379C29.0279 246.667 29.1356 245.955 29.2465 245.222C29.4759 243.663 29.7051 242.105 29.9342 240.547C30.0571 239.718 30.1799 238.89 30.3065 238.036C30.9547 233.635 31.5779 229.231 32.2042 224.827C33.0005 219.228 33.8042 213.631 34.6438 208.038C35.3226 203.516 35.9688 198.991 36.5968 194.461C36.8402 192.745 37.0941 191.031 37.3595 189.318C38.9767 178.834 39.1567 170.953 35.1843 161.044C32.5161 153.547 31.8913 144.889 31.6498 136.996C31.6259 136.334 31.602 135.671 31.5774 134.988C31.5886 131.117 32.2212 127.299 32.7497 123.472C32.8668 122.605 32.984 121.739 33.1048 120.846C33.4923 117.986 33.8872 115.127 34.2833 112.268C34.3509 111.78 34.4184 111.291 34.488 110.788C35.1266 106.176 35.7679 101.563 36.4158 96.9519C37.241 91.0775 38.0525 85.2014 38.8454 79.3225C39.4059 75.1753 39.9821 71.0305 40.5698 66.8871C40.9195 64.4187 41.2624 61.9498 41.5883 59.4782C41.953 56.7159 42.3502 53.9593 42.75 51.2019C42.8516 50.395 42.9532 49.5881 43.0579 48.7568C43.9893 42.623 46.3485 37.5611 51.1186 33.4338C52.3928 32.5262 53.6351 31.8726 55.0641 31.2384C55.5242 31.0212 55.9844 30.8039 56.4585 30.5801C61.6747 28.606 67.0688 29.819 72.3689 30.9515C73.0069 31.2707 73.6449 31.5898 74.3023 31.9186C74.5217 31.3803 74.7411 30.842 74.9672 30.2873C78.1393 24.7007 82.3977 22.1189 88.4189 20.1268C91.0453 19.6498 93.3644 20.0432 95.9716 20.4303C96.4622 20.4978 96.9528 20.5653 97.4583 20.6349C99.6215 20.9484 101.338 21.2718 103.306 22.2564C103.526 21.718 103.745 21.1797 103.971 20.6251C107.143 15.0385 111.402 12.4566 117.423 10.4646C123.189 9.41738 129.759 10.8025 134.612 14.0023ZM266.063 45.4554C265.5 45.4277 264.936 45.3999 264.356 45.3714C253.434 44.9644 242.169 46.8824 232.019 51.001C228.196 52.4651 225.31 52.5406 221.297 51.9408C220.41 51.8246 220.41 51.8246 219.504 51.706C217.606 51.4545 215.712 51.185 213.817 50.9146C212.639 50.7558 211.46 50.5981 210.282 50.4416C205.934 49.856 201.59 49.2473 197.245 48.6413C187.523 47.3076 177.801 45.9739 167.784 44.5998C164.814 66.9631 161.843 89.3263 158.782 112.367C178.037 115.321 178.037 115.321 197.294 118.268C201.017 118.842 201.017 118.842 202.758 119.111C203.976 119.298 205.194 119.484 206.412 119.669C208.256 119.95 210.1 120.235 211.943 120.52C212.487 120.602 213.031 120.684 213.591 120.768C215.763 121.108 217.511 121.442 219.491 122.432C219.817 123.616 220.101 124.81 220.361 126.009C221.496 128.555 222.814 130.998 224.13 133.454C224.533 134.224 224.935 134.994 225.35 135.787C232.734 146.105 243.616 151.87 255.899 153.936C258.238 154.283 260.579 154.611 262.923 154.929C263.732 155.042 264.541 155.154 265.375 155.27C267.35 155.545 269.326 155.816 271.303 156.084C271.446 155.381 271.588 154.678 271.735 153.953C271.925 153.028 272.116 152.103 272.307 151.178C272.4 150.715 272.494 150.252 272.59 149.774C273.017 147.717 273.454 145.986 274.399 144.097C276.366 143.74 277.51 143.763 279.449 144.034C280.043 144.115 280.638 144.196 281.25 144.28C281.9 144.372 282.549 144.464 283.219 144.56C283.905 144.654 284.591 144.749 285.298 144.846C286.79 145.052 288.282 145.26 289.774 145.468C292.136 145.798 294.498 146.123 296.861 146.446C303.58 147.364 310.299 148.288 317.015 149.226C321.122 149.799 325.23 150.362 329.34 150.919C330.905 151.133 332.469 151.351 334.033 151.572C336.224 151.882 338.416 152.18 340.608 152.475C341.574 152.616 341.574 152.616 342.559 152.76C346.341 153.253 349.119 153.224 352.704 151.845C354.719 149.595 355.267 147.565 355.122 144.595C353.637 141.95 352.458 140.612 349.613 139.664C348.601 139.446 347.582 139.259 346.56 139.096C345.959 138.999 345.358 138.901 344.738 138.801C344.094 138.699 343.45 138.598 342.786 138.493C342.12 138.385 341.455 138.277 340.769 138.166C337.923 137.705 335.076 137.251 332.229 136.796C330.151 136.463 328.073 136.126 325.995 135.789C325.349 135.687 324.703 135.586 324.038 135.481C323.439 135.384 322.839 135.286 322.222 135.186C321.695 135.102 321.168 135.018 320.625 134.931C319.258 134.631 319.258 134.631 317.324 133.664C316.945 131.574 317.034 130.221 317.337 128.142C317.419 127.555 317.502 126.969 317.586 126.365C317.906 124.77 317.906 124.77 318.873 122.837C321.203 122.414 322.865 122.622 325.208 122.944C326.074 123.06 326.941 123.177 327.833 123.298C328.296 123.361 328.758 123.425 329.235 123.491C330.688 123.691 332.141 123.885 333.594 124.078C337.726 124.626 341.857 125.18 345.986 125.747C348.513 126.094 351.042 126.432 353.572 126.763C354.532 126.891 355.493 127.022 356.452 127.157C363.408 128.258 363.408 128.258 370.11 126.713C372.125 124.462 372.672 122.433 372.528 119.463C371.046 116.822 369.871 115.453 367.019 114.532C365.593 114.252 364.16 114.008 362.724 113.786C361.852 113.65 360.98 113.514 360.081 113.373C359.384 113.267 359.384 113.267 358.674 113.158C357.217 112.935 355.76 112.708 354.304 112.48C350.688 111.915 347.072 111.356 343.455 110.798C340.396 110.325 337.338 109.85 334.279 109.371C332.844 109.147 331.409 108.927 329.973 108.708C329.103 108.572 328.233 108.436 327.336 108.296C326.569 108.177 325.801 108.059 325.011 107.937C323.129 107.563 323.129 107.563 321.196 106.596C320.817 104.506 320.906 103.152 321.209 101.073C321.291 100.487 321.373 99.9005 321.458 99.2963C321.778 97.702 321.778 97.702 322.745 95.7687C324.715 95.4108 325.892 95.436 327.838 95.6977C328.433 95.7757 329.028 95.8538 329.641 95.9342C330.604 96.0643 330.604 96.0643 331.585 96.197C332.948 96.3725 334.31 96.5475 335.672 96.7223C337.818 97.0007 339.962 97.282 342.106 97.5704C344.177 97.8475 346.249 98.1122 348.322 98.3752C348.957 98.4639 349.593 98.5525 350.248 98.6439C354.043 99.1149 356.853 99.0888 360.448 97.709C362.462 95.4581 363.01 93.4286 362.866 90.4588C361.381 87.8137 360.202 86.4751 357.356 85.5274C356.345 85.3098 355.326 85.1229 354.304 84.96C353.703 84.8624 353.102 84.7649 352.482 84.6644C351.838 84.5628 351.193 84.4612 350.529 84.3566C349.864 84.2487 349.198 84.1408 348.513 84.0296C345.667 83.5683 342.82 83.1142 339.973 82.6595C337.894 82.3264 335.816 81.9897 333.739 81.6527C333.093 81.551 332.447 81.4492 331.782 81.3444C331.182 81.2471 330.583 81.1499 329.966 81.0497C329.439 80.9657 328.912 80.8816 328.369 80.795C327.001 80.4948 327.001 80.4948 325.068 79.5277C324.688 77.4375 324.777 76.0841 325.081 74.0052C325.163 73.4187 325.245 72.8323 325.33 72.2281C325.65 70.6338 325.65 70.6338 326.617 68.7004C328.796 68.3046 330.31 68.4321 332.497 68.7053C333.235 68.7913 333.973 68.8773 334.733 68.9659C336.28 69.1514 337.826 69.342 339.372 69.5377C343.549 70.0149 346.85 70.3025 350.785 68.7048C352.8 66.4539 353.348 64.4245 353.204 61.4546C351.72 58.8116 350.54 57.467 347.694 56.5232C346.694 56.3182 345.687 56.146 344.677 55.9993C344.073 55.91 343.47 55.8208 342.848 55.7288C341.862 55.5882 341.862 55.5882 340.855 55.4447C340.159 55.3427 339.462 55.2407 338.744 55.1357C336.433 54.7986 334.122 54.4666 331.81 54.1352C330.195 53.9019 328.579 53.6685 326.964 53.435C323.568 52.9451 320.171 52.4579 316.774 51.9725C312.459 51.3553 308.146 50.7289 303.833 50.1C300.489 49.614 297.144 49.1342 293.799 48.6561C292.211 48.4282 290.624 48.1981 289.037 47.9657C281.391 46.8485 273.785 45.8348 266.063 45.4554ZM116.357 27.5758C115.219 29.7773 114.923 32.0469 114.548 34.4804C114.411 35.3526 114.275 36.2249 114.134 37.1235C114.028 37.8201 114.028 37.8201 113.919 38.5308C113.696 39.9878 113.469 41.4442 113.241 42.9004C112.676 46.5159 112.118 50.1325 111.559 53.749C111.086 56.8082 110.611 59.8669 110.132 62.9251C109.908 64.3601 109.689 65.7956 109.469 67.2313C109.333 68.1014 109.197 68.9715 109.057 69.868C108.879 71.0193 108.879 71.0193 108.698 72.1938C108.324 74.0749 108.324 74.0749 107.357 76.0083C105.267 76.3879 103.914 76.2989 101.835 75.9952C100.955 75.872 100.955 75.872 100.057 75.7464C98.4631 75.4266 98.4631 75.4266 96.5298 74.4595C96.1719 72.4891 96.1971 71.3128 96.4588 69.3667C96.5369 68.7714 96.6149 68.1762 96.6953 67.563C96.7821 66.9215 96.8688 66.28 96.9581 65.6191C97.1336 64.2568 97.3087 62.8945 97.4834 61.5321C97.7618 59.3868 98.0431 57.2421 98.3315 55.0982C98.6086 53.0274 98.8733 50.9553 99.1363 48.8827C99.225 48.2471 99.3137 47.6115 99.405 46.9567C99.8761 43.1613 99.8499 40.3518 98.4701 36.7567C96.2192 34.742 94.1898 34.1942 91.2199 34.3385C88.5748 35.8235 87.2362 37.0023 86.2885 39.8481C86.071 40.8598 85.884 41.8783 85.7211 42.9002C85.5748 43.8022 85.5748 43.8022 85.4255 44.7223C85.3239 45.3668 85.2224 46.0112 85.1177 46.6752C85.0098 47.3407 84.9019 48.0061 84.7908 48.6918C84.3294 51.5376 83.8753 54.3846 83.4206 57.2316C83.0876 59.3101 82.7508 61.388 82.4139 63.4659C82.3121 64.1117 82.2104 64.7575 82.1055 65.4229C81.9597 66.3216 81.9597 66.3216 81.8108 67.2385C81.6848 68.0291 81.6848 68.0291 81.5561 68.8358C81.256 70.2031 81.256 70.2031 80.2889 72.1364C78.1986 72.516 76.8453 72.427 74.7663 72.1233C73.8866 72.0002 73.8866 72.0002 72.9892 71.8745C71.3949 71.5547 71.3949 71.5547 69.4616 70.5876C69.0657 68.4082 69.1932 66.8944 69.4664 64.7079C69.5524 63.9697 69.6384 63.2316 69.727 62.4712C69.9125 60.9243 70.1031 59.378 70.2988 57.8324C70.776 53.6553 71.0636 50.3544 69.4659 46.419C67.2151 44.4043 65.1856 43.8565 62.2157 44.0008C59.5726 45.4847 58.2288 46.6643 57.2843 49.5104C57.0808 50.5003 56.91 51.4972 56.7647 52.4973C56.6764 53.094 56.5881 53.6908 56.4972 54.3056C56.4045 54.9559 56.3117 55.6062 56.2162 56.2762C56.1154 56.9652 56.0145 57.6542 55.9106 58.3641C55.5771 60.6496 55.2487 62.9359 54.9209 65.2222C54.69 66.8209 54.459 68.4197 54.2279 70.0183C53.7429 73.3798 53.2608 76.7417 52.7803 80.1038C52.1699 84.3716 51.5502 88.6381 50.928 92.9042C50.4469 96.2137 49.972 99.5242 49.4988 102.835C49.2734 104.405 49.0458 105.975 48.8159 107.545C47.685 115.283 46.6858 122.983 46.266 130.795C46.2337 131.391 46.2014 131.986 46.1681 132.6C45.6944 143.614 47.6073 154.947 51.7622 165.185C53.2262 169.009 53.3017 171.895 52.7019 175.907C52.6244 176.499 52.5469 177.091 52.4671 177.701C52.2157 179.598 51.9462 181.492 51.6758 183.387C51.5169 184.566 51.3592 185.744 51.2028 186.923C50.6172 191.27 50.0084 195.614 49.4024 199.959C48.0687 209.681 46.7351 219.403 45.361 229.42C67.7242 232.391 90.0874 235.362 113.128 238.423C116.083 219.167 116.083 219.167 119.03 199.91C119.603 196.188 119.603 196.188 119.872 194.446C120.059 193.228 120.245 192.01 120.431 190.792C120.711 188.948 120.996 187.105 121.281 185.261C121.363 184.718 121.445 184.174 121.529 183.614C121.869 181.442 122.203 179.693 123.193 177.713C124.377 177.388 125.571 177.103 126.771 176.844C129.316 175.708 131.759 174.39 134.215 173.075C134.985 172.672 135.755 172.269 136.548 171.854C147.166 164.257 152.676 153.214 154.793 140.637C155.126 138.393 155.44 136.148 155.744 133.901C155.906 132.74 155.906 132.74 156.07 131.556C156.332 129.672 156.59 127.787 156.846 125.901C156.142 125.759 155.439 125.616 154.714 125.47C153.789 125.279 152.864 125.088 151.94 124.897C151.476 124.804 151.013 124.711 150.536 124.614C148.479 124.187 146.747 123.75 144.858 122.806C144.501 120.839 144.524 119.694 144.795 117.756C144.876 117.161 144.957 116.567 145.041 115.955C145.133 115.305 145.226 114.655 145.321 113.986C145.415 113.299 145.51 112.613 145.607 111.906C145.813 110.414 146.021 108.922 146.23 107.431C146.559 105.069 146.884 102.706 147.207 100.343C148.125 93.6239 149.049 86.9056 149.987 80.1891C150.56 76.0822 151.123 71.974 151.68 67.8649C151.894 66.2998 152.112 64.7352 152.333 63.1711C152.643 60.9806 152.941 58.7888 153.236 56.5962C153.33 55.9523 153.424 55.3084 153.521 54.645C154.014 50.8629 153.985 48.0854 152.607 44.5004C150.356 42.4858 148.326 41.9379 145.356 42.0823C142.711 43.5672 141.373 44.7461 140.425 47.5918C140.207 48.6035 140.021 49.622 139.858 50.6439C139.76 51.2452 139.662 51.8465 139.562 52.466C139.46 53.1105 139.359 53.7549 139.254 54.4189C139.146 55.0844 139.038 55.7499 138.927 56.4355C138.466 59.2814 138.012 62.1284 137.557 64.9753C137.224 67.0538 136.887 69.1317 136.55 71.2096C136.449 71.8554 136.347 72.5012 136.242 73.1666C136.145 73.7658 136.048 74.3649 135.947 74.9822C135.821 75.7729 135.821 75.7729 135.693 76.5795C135.392 77.9468 135.392 77.9468 134.425 79.8801C132.335 80.2598 130.982 80.1707 128.903 79.867C128.023 79.7439 128.023 79.7439 127.126 79.6182C125.531 79.2985 125.531 79.2985 123.598 78.3314C123.175 76.0013 123.383 74.3399 123.705 71.9961C123.822 71.1299 123.938 70.2638 124.059 69.3713C124.123 68.9087 124.186 68.446 124.252 67.9693C124.452 66.5169 124.646 65.0639 124.839 63.6106C125.387 59.4788 125.941 55.3476 126.509 51.2184C126.856 48.6909 127.193 46.1623 127.524 43.6328C127.652 42.6721 127.783 41.7119 127.918 40.7522C129.019 33.7965 129.019 33.7965 127.474 27.0944C123.585 23.6132 119.911 24.0224 116.357 27.5758ZM170.38 127.837C170.27 128.559 170.16 129.28 170.047 130.023C169.629 132.754 169.193 135.482 168.753 138.209C168.566 139.379 168.384 140.551 168.206 141.722C166.71 151.574 164.48 161 158.427 169.158C158.13 169.57 157.832 169.982 157.526 170.406C152.886 176.702 146.319 184.57 138.475 186.714C136.698 187.242 135.48 187.778 134.019 188.929C132.835 191.688 132.578 194.505 132.257 197.474C132.145 198.311 132.033 199.148 131.918 200.011C131.626 202.231 131.358 204.451 131.101 206.675C130.833 208.947 130.533 211.214 130.237 213.481C129.662 217.926 129.119 222.373 128.598 226.825C129.68 226.989 129.68 226.989 130.784 227.157C133.515 227.576 136.243 228.011 138.97 228.452C140.141 228.638 141.312 228.821 142.484 228.998C152.337 230.495 161.759 232.726 169.919 238.778C170.535 239.22 170.535 239.22 171.164 239.672C176.595 243.661 184.434 249.453 185.876 256.401C186.615 259.224 187.397 261.35 189.69 263.185C195.715 265.539 202.526 265.792 208.904 266.452C210.711 266.664 212.517 266.889 214.323 267.113C218.74 267.654 223.16 268.148 227.586 268.606C227.75 267.524 227.75 267.524 227.918 266.42C228.337 263.689 228.772 260.962 229.213 258.234C229.399 257.064 229.582 255.893 229.759 254.721C231.256 244.867 233.487 235.445 239.539 227.286C239.834 226.875 240.129 226.464 240.433 226.041C244.423 220.609 250.215 212.771 257.162 211.328C259.985 210.59 262.112 209.807 263.947 207.514C266.3 201.489 266.554 194.679 267.213 188.301C267.425 186.493 267.65 184.688 267.875 182.882C268.415 178.465 268.909 174.045 269.367 169.619C268.285 169.454 268.285 169.454 267.181 169.286C264.45 168.868 261.723 168.432 258.995 167.992C257.825 167.805 256.654 167.623 255.482 167.445C245.63 165.949 236.204 163.719 228.047 157.666C227.429 157.22 227.429 157.22 226.798 156.765C220.502 152.125 212.635 145.557 210.49 137.714C209.963 135.937 209.427 134.719 208.275 133.258C205.516 132.074 202.699 131.817 199.731 131.496C198.893 131.384 198.056 131.272 197.193 131.157C194.974 130.865 192.753 130.597 190.529 130.34C188.258 130.072 185.991 129.772 183.723 129.476C179.278 128.901 174.831 128.358 170.38 127.837ZM345.001 165.999C344.353 165.913 343.705 165.827 343.037 165.739C340.889 165.454 338.74 165.169 336.591 164.884C335.104 164.687 333.617 164.489 332.13 164.292C328.21 163.772 324.291 163.253 320.371 162.733C316.374 162.203 312.377 161.673 308.379 161.142C300.532 160.102 292.685 159.061 284.837 158.02C284.725 158.752 284.614 159.485 284.498 160.239C283.445 167.13 282.389 174.021 281.329 180.911C280.784 184.453 280.24 187.996 279.699 191.539C279.177 194.957 278.652 198.374 278.125 201.791C277.924 203.096 277.725 204.402 277.526 205.707C277.249 207.533 276.967 209.357 276.684 211.182C276.603 211.725 276.521 212.267 276.437 212.826C276.096 215 275.763 216.749 274.772 218.73C273.119 219.201 273.119 219.201 271.195 219.6C260.801 223.73 252.108 230.892 247.203 241.082C243.442 250.513 242.393 260.538 241.12 270.542C241.823 270.684 242.527 270.827 243.251 270.974C244.176 271.164 245.101 271.355 246.026 271.546C246.489 271.639 246.953 271.733 247.43 271.829C249.487 272.256 251.219 272.693 253.107 273.638C253.464 275.605 253.441 276.749 253.171 278.688C253.089 279.282 253.008 279.876 252.924 280.489C252.832 281.138 252.74 281.788 252.645 282.458C252.503 283.487 252.503 283.487 252.358 284.537C252.152 286.029 251.945 287.521 251.736 289.013C251.406 291.375 251.082 293.737 250.759 296.1C249.84 302.819 248.917 309.538 247.979 316.254C247.406 320.361 246.843 324.469 246.286 328.578C246.072 330.143 245.854 331.708 245.632 333.272C245.322 335.463 245.025 337.655 244.73 339.847C244.589 340.813 244.589 340.813 244.445 341.798C243.952 345.58 243.98 348.358 245.359 351.943C247.61 353.958 249.639 354.505 252.609 354.361C255.254 352.876 256.593 351.697 257.541 348.851C257.758 347.84 257.945 346.821 258.108 345.799C258.254 344.897 258.254 344.897 258.404 343.977C258.505 343.333 258.607 342.688 258.711 342.024C258.819 341.359 258.927 340.693 259.038 340.008C259.5 337.162 259.954 334.315 260.408 331.468C260.742 329.389 261.078 327.312 261.415 325.234C261.517 324.588 261.619 323.942 261.724 323.277C261.869 322.378 261.869 322.378 262.018 321.461C262.144 320.67 262.144 320.67 262.273 319.864C262.573 318.496 262.573 318.496 263.54 316.563C265.63 316.184 266.984 316.273 269.063 316.576C269.649 316.658 270.236 316.74 270.84 316.825C272.434 317.145 272.434 317.145 274.368 318.112C274.791 320.442 274.582 322.103 274.261 324.447C274.144 325.313 274.027 326.179 273.907 327.072C273.843 327.535 273.779 327.997 273.713 328.474C273.514 329.926 273.319 331.379 273.127 332.833C272.578 336.965 272.025 341.096 271.457 345.225C271.11 347.752 270.773 350.281 270.442 352.81C270.314 353.771 270.183 354.731 270.047 355.691C268.947 362.647 268.947 362.647 270.491 369.349C272.742 371.363 274.772 371.911 277.741 371.767C280.382 370.285 281.752 369.11 282.673 366.257C282.953 364.832 283.196 363.399 283.418 361.963C283.554 361.091 283.691 360.218 283.831 359.32C283.938 358.623 283.938 358.623 284.046 357.912C284.269 356.455 284.496 354.999 284.724 353.543C285.29 349.927 285.848 346.311 286.407 342.694C286.879 339.635 287.355 336.576 287.834 333.518C288.057 332.083 288.277 330.648 288.497 329.212C288.633 328.342 288.769 327.472 288.909 326.575C289.086 325.424 289.086 325.424 289.268 324.249C289.641 322.368 289.641 322.368 290.608 320.435C292.699 320.055 294.052 320.144 296.131 320.448C296.717 320.53 297.304 320.612 297.908 320.697C299.502 321.017 299.502 321.017 301.436 321.984C301.794 323.954 301.768 325.13 301.507 327.077C301.429 327.672 301.351 328.267 301.27 328.88C301.183 329.522 301.097 330.163 301.007 330.824C300.832 332.186 300.657 333.549 300.482 334.911C300.204 337.056 299.922 339.201 299.634 341.345C299.357 343.416 299.092 345.488 298.829 347.561C298.741 348.196 298.652 348.832 298.561 349.487C298.089 353.282 298.116 356.092 299.495 359.687C301.746 361.701 303.776 362.249 306.746 362.105C309.391 360.62 310.729 359.441 311.677 356.595C311.895 355.583 312.082 354.565 312.244 353.543C312.342 352.942 312.44 352.34 312.54 351.721C312.642 351.076 312.743 350.432 312.848 349.768C312.956 349.103 313.064 348.437 313.175 347.752C313.636 344.906 314.09 342.059 314.545 339.212C314.878 337.133 315.215 335.055 315.552 332.977C315.653 332.332 315.755 331.686 315.86 331.02C315.957 330.421 316.055 329.822 316.155 329.205C316.281 328.414 316.281 328.414 316.409 327.608C316.71 326.24 316.71 326.24 317.677 324.307C319.767 323.927 321.12 324.016 323.199 324.32C323.786 324.402 324.372 324.484 324.976 324.569C326.571 324.889 326.571 324.889 328.504 325.856C328.9 328.035 328.772 329.549 328.499 331.735C328.413 332.474 328.327 333.212 328.239 333.972C328.053 335.519 327.862 337.065 327.667 338.611C327.19 342.788 326.902 346.089 328.5 350.024C330.751 352.039 332.78 352.587 335.75 352.442C338.393 350.959 339.737 349.779 340.681 346.933C340.885 345.943 341.056 344.946 341.201 343.946C341.289 343.349 341.377 342.752 341.468 342.138C341.561 341.487 341.654 340.837 341.749 340.167C341.85 339.478 341.951 338.789 342.055 338.079C342.389 335.794 342.717 333.507 343.045 331.221C343.276 329.622 343.507 328.024 343.738 326.425C344.223 323.063 344.705 319.702 345.185 316.34C345.796 312.072 346.415 307.805 347.038 303.539C347.519 300.23 347.994 296.919 348.467 293.608C348.692 292.038 348.92 290.468 349.15 288.898C350.28 281.163 351.28 273.464 351.701 265.653C351.734 265.059 351.767 264.464 351.8 263.851C352.239 253.681 351.017 241.824 346.513 232.55C343.682 226.115 345.267 219.622 346.243 212.914C346.423 211.588 346.603 210.261 346.78 208.934C347.25 205.461 347.739 201.992 348.232 198.522C348.733 194.974 349.216 191.423 349.699 187.872C350.649 180.92 351.62 173.971 352.605 167.023C350.073 166.661 347.536 166.335 345.001 165.999Z" fill="#FF3822"/>
<path d="M101.315 345.149C103.248 346.721 103.248 346.721 104.215 349.017C104.397 352.514 103.898 354.983 101.675 357.717C98.4277 359.084 95.9177 358.871 92.6121 357.716C90.6789 356.144 90.6789 356.144 89.7126 353.848C89.53 350.351 90.0294 347.882 92.2518 345.148C95.4995 343.781 98.0095 343.994 101.315 345.149Z" fill="#FF3822"/>
</g>
<defs>
<clipPath id="clip0_512_312">
<rect width="350" height="350" fill="white" transform="translate(50.5264 0.205078) rotate(8.14041)"/>
</clipPath>
</defs>
</svg>
