<svg width="286" height="286" viewBox="0 0 386 386" fill="none" xmlns="http://www.w3.org/2000/svg">
<g clip-path="url(#clip0_512_174)">
<path d="M222.33 158.673C223.382 159.38 224.419 160.111 225.443 160.858C226.44 161.572 226.44 161.572 227.456 162.299C234.955 167.96 240.369 174.955 244.398 183.453C244.683 184.054 244.969 184.656 245.263 185.275C250.915 199.092 250.151 214.7 244.595 228.313C243.173 231.616 241.517 234.59 239.394 237.497C238.919 238.161 238.443 238.825 237.953 239.51C230.857 248.911 221.566 254.448 210.926 259.157C212.108 259.264 212.108 259.264 213.313 259.373C234.299 261.387 252.702 268.848 267.818 283.734C269.912 282.506 271.385 281.078 273.029 279.301C281.267 271.039 291.932 265.561 303.211 262.68C302.623 262.537 302.035 262.394 301.43 262.247C288.92 259.101 278.939 253.656 271.957 242.43C266.554 233.367 264.55 221.281 267.152 210.986C270.944 199.123 277.462 190.666 288.168 184.284C298.499 178.98 310.707 178.467 321.642 181.975C332.436 185.945 340.215 193.739 345.403 203.843C349.999 214.493 349.826 226.429 345.871 237.18C340.848 248.578 332.004 255.755 320.826 260.734C321.581 260.809 322.335 260.884 323.112 260.961C340.277 262.779 356.627 269.512 368.002 282.985C376.399 293.915 380.696 304.774 382.298 318.399C382.438 319.563 382.586 320.726 382.74 321.888C382.964 323.574 383.165 325.262 383.362 326.952C383.435 327.468 383.507 327.985 383.582 328.517C383.85 331.037 383.765 332.438 382.475 334.644C380.108 336.916 378.086 337.183 374.948 337.482C374.083 337.585 374.084 337.585 373.201 337.691C371.259 337.918 369.316 338.12 367.371 338.323C365.968 338.482 364.565 338.643 363.163 338.804C359.301 339.245 355.436 339.665 351.571 340.081C347.407 340.533 343.244 341.005 339.081 341.474C331.394 342.338 323.706 343.186 316.017 344.026C308.914 344.802 301.812 345.584 294.71 346.372C294.004 346.451 294.004 346.451 293.283 346.531C291.373 346.743 289.462 346.955 287.551 347.167C269.619 349.158 251.685 351.129 233.75 353.092C217.81 354.836 201.873 356.598 185.936 358.375C168.039 360.37 150.14 362.354 132.239 364.321C130.331 364.53 128.423 364.74 126.516 364.95C125.811 365.027 125.811 365.027 125.092 365.106C117.994 365.886 110.896 366.675 103.799 367.467C95.7301 368.368 87.6603 369.257 79.5887 370.13C75.468 370.576 71.348 371.028 67.2295 371.494C63.4627 371.92 59.6945 372.331 55.9246 372.729C54.5578 372.876 53.1916 373.029 51.8261 373.188C49.9758 373.403 48.1244 373.597 46.2713 373.785C45.7364 373.852 45.2014 373.92 44.6503 373.989C41.9497 374.24 40.6501 374.079 38.3079 372.65C36.2613 370.462 35.9845 368.488 35.7198 365.615C35.6602 365.091 35.6007 364.567 35.5393 364.027C35.4172 362.915 35.3035 361.802 35.1976 360.689C35.0371 359.026 34.8453 357.37 34.6487 355.711C33.6276 346.4 33.7237 336.823 37.4018 328.043C37.6822 327.334 37.6822 327.334 37.9684 326.611C44.3359 310.815 55.83 297.945 71.5059 290.908C75.0777 289.417 78.5959 288.072 82.3392 287.076C81.7514 286.933 81.1637 286.79 80.5581 286.643C68.0485 283.497 58.0677 278.051 51.0852 266.825C45.6823 257.762 43.6781 245.676 46.2807 235.381C50.0725 223.519 56.5906 215.062 67.2965 208.68C77.6276 203.376 89.8351 202.863 100.771 206.37C111.564 210.341 119.344 218.134 124.531 228.238C129.127 238.888 128.954 250.825 124.999 261.576C119.976 272.974 111.132 280.151 99.9547 285.13C100.701 285.206 101.448 285.282 102.217 285.36C114.091 286.636 124.704 289.4 134.806 296.039C136.208 296.883 137.551 297.408 139.089 297.952C139.578 297.251 140.066 296.55 140.569 295.828C152.981 278.39 169.262 267.066 189.923 261.477C189.128 261.332 188.332 261.186 187.512 261.036C176.913 258.996 168.335 255.816 159.746 249.037C159.283 248.711 158.82 248.385 158.343 248.048C151.819 243.308 147.214 236.051 143.801 228.853C143.516 228.252 143.23 227.65 142.936 227.031C137.283 213.214 138.048 197.606 143.604 183.994C145.026 180.69 146.682 177.716 148.805 174.809C149.28 174.145 149.756 173.481 150.246 172.796C155.906 165.297 162.901 159.884 171.399 155.855C172.001 155.569 172.602 155.283 173.222 154.989C189.012 148.53 207.689 150.15 222.33 158.673ZM160.101 184.004C153.313 194.489 152.467 205.325 154.874 217.343C157.586 227.733 164.727 235.474 173.583 241.208C183.975 247.225 195.172 248.019 206.697 245.011C216.979 241.778 224.78 234.225 230.111 225.018C235.402 214.715 236.027 203.317 232.553 192.27C228.423 181.478 220.024 173.266 209.551 168.488C190.824 161.025 171.623 167.993 160.101 184.004ZM63.326 231.741C59.2541 238.923 59.1688 245.892 60.8323 253.79C63.1686 260.925 68.1871 266.084 74.6469 269.747C81.8698 273.201 89.5499 273.059 97.082 270.593C104.389 267.301 109.533 261.312 112.503 253.942C114.54 247.238 113.852 239.584 110.979 233.207C107.079 226.318 100.872 221.346 93.2983 219.044C81.0757 216.524 70.1588 221.54 63.326 231.741ZM284.198 207.346C280.126 214.527 280.04 221.496 281.704 229.395C284.04 236.53 289.059 241.688 295.519 245.351C302.741 248.806 310.422 248.664 317.954 246.198C325.26 242.905 330.404 236.916 333.374 229.546C335.412 222.842 334.724 215.189 331.85 208.812C327.951 201.923 321.744 196.95 314.17 194.648C301.947 192.129 291.03 197.144 284.198 207.346ZM183.589 278.636C183.181 278.817 182.772 278.998 182.351 279.185C164.775 287.127 152.358 300.539 145.119 318.393C141.489 328.704 140.789 338.18 141.992 349.066C186.261 344.176 230.53 339.286 276.141 334.249C273.994 314.809 265.08 299.727 250.096 287.409C233.474 274.814 215.021 272.538 194.894 275.239C190.888 275.859 187.297 276.972 183.589 278.636ZM60.2642 316.945C59.7014 317.541 59.7014 317.541 59.1273 318.148C50.8061 327.574 47.9243 340.271 48.4229 352.543C48.6699 354.778 48.9168 357.014 49.1713 359.318C75.1067 356.453 101.042 353.589 127.764 350.637C127.692 345.893 127.621 341.148 127.547 336.26C128.183 329.928 129.177 324.053 130.977 317.959C131.502 315.828 131.794 313.994 131.703 311.798C127.407 305.404 115.963 302.145 108.828 300.59C90.4228 297.528 72.8441 302.848 60.2642 316.945ZM280.458 292.625C279.744 293.336 279.744 293.336 279.015 294.062C277.839 295.6 277.839 295.6 278.308 297.526C279.273 299.863 280.41 302.067 281.618 304.284C283.664 308.195 285.327 312.132 286.719 316.321C286.88 316.796 287.042 317.27 287.208 317.759C288.79 322.716 289.432 327.43 290.369 332.677C316.304 329.813 342.24 326.948 368.961 323.997C367.266 308.652 362.574 296.637 350.667 286.477C339.856 277.905 327.284 274.222 313.595 275.592C300.43 277.183 289.315 282.597 280.458 292.625Z" fill="#FF3822"/>
<path d="M174.229 29.7435C174.73 29.6749 175.23 29.6064 175.746 29.5357C178.172 29.7815 179.14 30.4537 181.04 32.0344C182.805 34.3464 184.333 36.7897 185.867 39.2592C186.519 40.29 186.519 40.29 187.184 41.3415C188.453 43.3547 189.711 45.3747 190.966 47.3969C191.305 47.9386 191.644 48.4803 191.993 49.0384C196.796 56.7168 196.796 56.7168 196.981 58.3909C197.486 58.3662 197.992 58.3414 198.513 58.316C204.372 58.0709 210.186 58.1211 216.043 58.3373C217.57 58.3908 219.097 58.4291 220.625 58.4676C221.608 58.5023 222.592 58.5378 223.575 58.5744C224.89 58.6165 224.89 58.6165 226.231 58.6596C228.835 59.0496 230.234 59.7184 232.283 61.3496C233.415 63.8065 233.764 65.3213 233.709 68.05C231.739 71.963 228.543 75.1604 225.605 78.3612C217.092 86.798 217.092 86.798 213.557 97.5519C214.171 100.566 215.347 103.265 216.74 105.997C217.929 108.444 218.61 110.998 219.325 113.615C219.528 114.305 219.528 114.305 219.735 115.01C221.945 122.55 221.945 122.55 221.627 126.305C220.352 128.432 219.39 129.564 217.333 130.894C211.698 131.441 207.478 129.753 202.313 127.624C201.553 127.32 200.793 127.016 200.009 126.703C197 125.497 193.999 124.288 191.039 122.963C190.346 122.657 189.653 122.351 188.939 122.037C188.326 121.757 187.713 121.477 187.081 121.188C184.953 120.602 184.032 120.872 182.035 121.762C180.702 122.502 180.702 122.502 179.441 123.399C178.96 123.728 178.479 124.057 177.983 124.396C177.475 124.749 176.967 125.102 176.444 125.466C175.914 125.828 175.384 126.189 174.837 126.562C172.163 128.389 169.508 130.241 166.871 132.122C166.391 132.459 165.912 132.796 165.418 133.144C164.514 133.781 163.616 134.425 162.724 135.078C159.931 137.038 157.835 137.818 154.324 137.853C152.341 137.222 151.142 136.638 149.696 135.15C148.035 131.21 148.423 126.719 148.732 122.542C148.783 121.764 148.783 121.764 148.835 120.97C148.943 119.329 149.057 117.689 149.172 116.048C149.286 114.403 149.399 112.758 149.507 111.113C149.575 110.094 149.645 109.076 149.719 108.057C150.265 103.218 150.265 103.218 148.578 98.9202C147.999 98.5245 147.999 98.5245 147.409 98.1207C146.97 97.8091 146.531 97.4974 146.078 97.1764C145.597 96.8514 145.117 96.5265 144.621 96.1917C143.603 95.4638 142.586 94.7341 141.57 94.0026C141.031 93.6193 140.493 93.236 139.938 92.8411C136.99 90.722 134.1 88.5351 131.229 86.3126C130.674 85.9016 130.119 85.4905 129.547 85.067C127.054 83.1233 125.246 81.675 124.432 78.5419C124.138 75.63 124.242 74.2529 125.762 71.7434C129.228 69.7478 132.562 68.5126 136.428 67.557C136.929 67.4285 137.43 67.2999 137.946 67.1675C138.996 66.8994 140.047 66.6343 141.098 66.372C142.7 65.972 144.298 65.5626 145.897 65.1516C146.924 64.8908 147.95 64.6304 148.977 64.3707C149.451 64.2499 149.924 64.1291 150.411 64.0046C153.059 63.3475 155.644 62.8889 158.362 62.6564C158.469 62.0839 158.575 61.5114 158.685 60.9215C159.368 58.0155 160.323 55.2822 161.348 52.4819C161.551 51.9221 161.755 51.3623 161.965 50.7856C162.395 49.6083 162.826 48.4316 163.259 47.2554C163.92 45.4568 164.569 43.6546 165.218 41.852C165.638 40.7056 166.059 39.5595 166.48 38.4136C166.672 37.8758 166.865 37.3381 167.063 36.7841C168.494 32.9463 169.821 30.2381 174.229 29.7435ZM176.51 53.1083C176.244 53.8952 176.244 53.8952 175.973 54.6979C175.165 57.0802 174.348 59.4592 173.531 61.8383C173.252 62.6637 172.974 63.4892 172.687 64.3397C172.412 65.1347 172.138 65.9297 171.855 66.7488C171.605 67.4803 171.356 68.2118 171.098 68.9654C169.798 71.9992 168.689 73.6045 165.61 74.8697C164.731 75.1266 163.849 75.3717 162.964 75.6066C162.501 75.7386 162.037 75.8705 161.559 76.0064C160.117 76.4122 158.672 76.8006 157.224 77.1837C156.526 77.3696 156.526 77.3696 155.815 77.5592C153.178 78.2584 150.536 78.9326 147.888 79.5864C149.316 82.4265 151.739 83.9077 154.263 85.6972C162.778 91.8143 162.778 91.8143 163.912 94.2754C164.528 98.2635 164.479 101.977 164.177 105.99C163.922 109.465 163.756 112.712 164.274 116.181C165.889 115.147 167.504 114.111 169.117 113.074C169.568 112.785 170.02 112.497 170.485 112.2C172.646 110.809 174.727 109.405 176.741 107.806C179.597 105.904 182.194 104.65 185.674 105.315C187.112 105.781 188.481 106.327 189.869 106.924C190.8 107.304 191.732 107.681 192.665 108.057C193.142 108.252 193.619 108.447 194.111 108.648C197.219 109.843 200.398 110.832 203.57 111.84C203.431 111.368 203.293 110.897 203.15 110.411C202.518 108.245 201.898 106.076 201.279 103.907C201.061 103.165 200.842 102.423 200.617 101.659C198.179 93.038 198.179 93.038 198.993 89.029C200.205 87.1244 200.205 87.1244 202.007 85.2672C202.773 84.3442 203.532 83.4141 204.284 82.4788C204.683 81.9879 205.081 81.497 205.492 80.9912C205.899 80.4906 206.306 79.9899 206.725 79.4742C207.143 78.9642 207.562 78.4543 207.994 77.9289C208.389 77.4411 208.783 76.9533 209.19 76.4507C209.55 76.0089 209.911 75.5672 210.282 75.112C211.199 74.0198 211.199 74.0198 210.897 72.6269C210.353 72.6147 209.809 72.6025 209.248 72.5899C206.774 72.5299 204.301 72.4579 201.827 72.3857C200.97 72.3667 200.114 72.3478 199.231 72.3282C198.404 72.3024 197.577 72.2766 196.725 72.2501C195.965 72.2299 195.205 72.2097 194.422 72.1889C191.578 71.851 189.538 71.2075 187.583 69.0589C187.128 68.3589 187.128 68.3589 186.663 67.6447C186.32 67.1262 185.977 66.6076 185.623 66.0733C185.277 65.532 184.932 64.9907 184.575 64.433C184.228 63.9051 183.881 63.3772 183.524 62.8333C182.505 61.2794 181.499 59.7181 180.496 58.1543C179.86 57.1699 179.223 56.1856 178.586 55.2015C178.125 54.4861 177.663 53.7706 177.187 53.0335C176.963 53.0582 176.74 53.0829 176.51 53.1083Z" fill="#FF3822"/>
<path d="M296.175 77.909C296.67 77.8394 297.164 77.7697 297.674 77.698C300.11 78.0887 301.496 79.1079 303.028 80.9668C303.717 82.249 304.369 83.5509 304.996 84.8641C307.344 89.6258 309.606 94.2009 313.782 97.6095C319.242 99.4139 324.755 99.041 330.427 98.7418C335.557 98.4757 335.557 98.4757 337.963 100.01C339.909 101.921 340.479 102.889 340.725 105.606C339.807 109.906 337.937 112.579 335.134 115.91C334.769 116.358 334.404 116.806 334.028 117.267C332.321 119.345 330.613 121.27 328.632 123.09C326.886 124.801 326.886 124.801 327.011 126.971C327.276 128.021 327.276 128.021 327.546 129.093C327.729 129.859 327.911 130.626 328.1 131.416C328.659 133.396 329.25 135.36 329.869 137.323C332.92 147.294 332.92 147.294 331.314 151.176C329.779 153.013 328.183 153.627 325.915 154.229C321.55 154.616 317.608 152.406 313.691 150.725C312.104 150.048 310.513 149.379 308.918 148.721C308.219 148.421 307.521 148.121 306.801 147.812C304.53 147.193 303.666 147.357 301.554 148.337C300.468 148.98 299.406 149.665 298.367 150.382C297.782 150.781 297.196 151.181 296.593 151.593C295.991 152.01 295.388 152.428 294.767 152.858C293.564 153.685 292.361 154.511 291.156 155.336C290.626 155.702 290.096 156.069 289.549 156.447C286.82 158.228 284.037 159.082 280.771 158.862C278.785 157.589 277.46 156.545 276.182 154.568C276.058 153.366 275.993 152.158 275.954 150.95C275.913 150.15 275.871 149.35 275.829 148.526C275.796 146.372 276.106 144.453 276.555 142.349C277.247 138.473 277.794 134.989 276.348 131.233C272.245 126.257 266.762 122.635 261.417 119.107C259.289 117.619 259.05 117.08 258.514 114.515C258.431 111.433 258.903 110.077 260.706 107.586C264.42 105.782 268.343 104.823 272.334 103.816C273.254 103.577 273.254 103.577 274.192 103.332C277.252 102.551 280.207 101.887 283.368 101.654C283.507 100.857 283.507 100.857 283.648 100.043C284.517 96.4299 285.77 92.9935 287.041 89.5047C287.288 88.7994 287.535 88.0941 287.789 87.3674C291.031 78.4681 291.031 78.4681 296.175 77.909ZM298.423 101.363C297.788 102.889 297.157 104.416 296.529 105.944C296.348 106.378 296.167 106.812 295.98 107.259C294.949 109.575 294.949 109.575 294.803 112.05C291.911 113.486 289.108 114.397 285.975 115.168C285.144 115.375 284.313 115.581 283.456 115.794C282.828 115.947 282.199 116.099 281.552 116.257C282.237 116.911 282.924 117.564 283.611 118.215C284.028 118.612 284.445 119.009 284.875 119.418C286.217 120.671 286.217 120.671 288.224 121.949C291.511 125.111 291.306 129.373 291.411 133.727C291.413 134.856 291.412 135.985 291.399 137.114C292.197 136.568 292.197 136.568 293.011 136.012C300.187 131.352 300.187 131.352 304.426 131.721C306.768 132.28 308.903 133.176 311.071 134.215C312.37 134.911 312.37 134.911 313.757 134.645C313.55 133.791 313.342 132.937 313.129 132.057C312.885 130.912 312.644 129.767 312.406 128.622C312.207 127.78 312.207 127.78 312.004 126.922C311.528 124.364 311.284 122.609 312.454 120.226C313.509 118.723 314.641 117.325 315.802 115.903C316.594 114.682 317.376 113.455 318.138 112.216C317.383 112.19 316.628 112.165 315.85 112.139C314.847 112.089 313.844 112.038 312.841 111.986C312.344 111.972 311.848 111.957 311.337 111.942C307.781 111.738 305.889 110.999 303.311 108.367C302.023 106.524 302.023 106.524 300.971 104.639C300.614 104.01 300.257 103.38 299.889 102.731C299.629 102.255 299.369 101.779 299.101 101.288C298.877 101.313 298.653 101.338 298.423 101.363Z" fill="#FF3822"/>
<path d="M65.8185 103.352C66.3129 103.283 66.8074 103.213 67.3168 103.141C69.7535 103.532 71.1389 104.551 72.6712 106.41C73.3597 107.692 74.0119 108.994 74.6393 110.307C76.9875 115.069 79.2486 119.644 83.4246 123.053C88.8853 124.857 94.3983 124.484 100.07 124.185C105.2 123.919 105.2 123.919 107.607 125.453C109.552 127.364 110.123 128.333 110.368 131.05C109.45 135.349 107.58 138.023 104.777 141.354C104.412 141.802 104.047 142.249 103.671 142.711C101.964 144.789 100.256 146.713 98.2751 148.533C96.5289 150.244 96.5289 150.244 96.6544 152.414C96.9189 153.465 96.9189 153.465 97.1888 154.536C97.3716 155.303 97.5544 156.069 97.7427 156.859C98.3019 158.84 98.8934 160.803 99.5122 162.766C102.563 172.738 102.563 172.738 100.957 176.62C99.4218 178.456 97.8262 179.07 95.5584 179.672C91.1933 180.06 87.2514 177.849 83.3336 176.168C81.7466 175.491 80.1558 174.822 78.5608 174.164C77.8623 173.864 77.1638 173.564 76.4441 173.255C74.1731 172.637 73.3095 172.8 71.1971 173.78C70.1112 174.423 69.0491 175.108 68.0101 175.825C67.4248 176.225 66.8396 176.624 66.2365 177.036C65.6338 177.454 65.031 177.871 64.41 178.301C63.2073 179.129 62.0038 179.954 60.7993 180.779C60.2691 181.146 59.7388 181.512 59.1925 181.89C56.4635 183.672 53.6798 184.525 50.4144 184.305C48.4284 183.032 47.1032 181.989 45.8255 180.011C45.701 178.809 45.6364 177.601 45.5973 176.393C45.5558 175.593 45.5143 174.793 45.4716 173.969C45.4395 171.815 45.749 169.897 46.1983 167.792C46.8905 163.916 47.4368 160.432 45.9912 156.676C41.8885 151.7 36.4055 148.079 31.0601 144.55C28.932 143.062 28.693 142.523 28.1573 139.958C28.0745 136.876 28.5465 135.52 30.3495 133.03C34.0629 131.225 37.9862 130.266 41.9772 129.26C42.8969 129.02 42.8969 129.02 43.8351 128.776C46.8947 127.994 49.8504 127.33 53.011 127.098C53.1497 126.3 53.1497 126.3 53.2911 125.486C54.1599 121.873 55.4127 118.437 56.6839 114.948C56.9309 114.243 57.1778 113.537 57.4323 112.811C60.6738 103.911 60.6738 103.911 65.8185 103.352ZM68.0662 126.807C67.4311 128.332 66.8003 129.859 66.1719 131.388C65.9908 131.821 65.8098 132.255 65.6232 132.702C64.5925 135.018 64.5925 135.018 64.446 137.493C61.5541 138.93 58.7508 139.84 55.618 140.611C54.7869 140.818 53.9558 141.025 53.0995 141.238C52.471 141.39 51.8425 141.543 51.1949 141.7C51.8797 142.355 52.5666 143.007 53.2543 143.658C53.6712 144.055 54.0881 144.452 54.5176 144.861C55.8605 146.115 55.8605 146.115 57.8671 147.392C61.1539 150.554 60.9495 154.817 61.0539 159.17C61.0563 160.299 61.0546 161.428 61.0423 162.557C61.84 162.012 61.84 162.012 62.6538 161.455C69.8304 156.795 69.8304 156.795 74.0686 157.165C76.4113 157.723 78.5464 158.62 80.7144 159.659C82.0134 160.355 82.0134 160.355 83.4005 160.088C83.193 159.234 82.9855 158.38 82.7718 157.5C82.5277 156.356 82.2871 155.211 82.0495 154.065C81.8505 153.224 81.8505 153.224 81.6475 152.366C81.1706 149.808 80.9266 148.052 82.0973 145.67C83.1516 144.166 84.2842 142.768 85.4451 141.346C86.2373 140.126 87.0192 138.898 87.781 137.659C87.0259 137.634 86.2708 137.608 85.4929 137.582C84.4898 137.532 83.4867 137.481 82.4837 137.43C81.9875 137.415 81.4913 137.401 80.98 137.385C77.4239 137.181 75.5323 136.442 72.9544 133.81C71.666 131.968 71.666 131.968 70.614 130.083C70.2571 129.453 69.9002 128.823 69.5325 128.174C69.2722 127.698 69.0119 127.222 68.7437 126.732C68.5201 126.756 68.2965 126.781 68.0662 126.807Z" fill="#FF3822"/>
<path d="M233.788 292.293C236.469 293.558 238.783 295.206 241.162 296.965C241.73 297.364 242.298 297.762 242.884 298.173C248.295 302.189 254.142 308.14 256.807 314.439C256.993 317.212 256.653 319.803 255.222 322.201C252.729 323.489 250.336 323.808 247.543 323.692C244.101 322.385 242.511 319.609 240.41 316.74C236.495 311.843 231.345 308.188 226.217 304.659C224.231 303.198 223.981 302.562 223.423 300.124C223.388 296.739 224.249 295.721 226.335 293.116C228.663 291.612 231.122 291.819 233.788 292.293Z" fill="#FF3822"/>
<path d="M206.467 287.081C208.725 288.118 208.725 288.118 210.229 290.095C211.275 293.426 211.407 295.934 209.941 299.127C207.144 301.255 204.668 301.674 201.188 301.38C198.931 300.343 198.931 300.343 197.427 298.367C196.381 295.035 196.249 292.527 197.715 289.334C200.511 287.206 202.988 286.787 206.467 287.081Z" fill="#FF3822"/>
</g>
<defs>
<clipPath id="clip0_512_174">
<rect width="349" height="349" fill="white" transform="translate(0 38.3147) rotate(-6.30286)"/>
</clipPath>
</defs>
</svg>
