<svg width="32" height="33" viewBox="0 0 32 33" fill="none" xmlns="http://www.w3.org/2000/svg">
<path fill-rule="evenodd" clip-rule="evenodd" d="M12.1128 7.32238C12.0454 7.31176 11.9769 7.31014 11.9091 7.31757C10.5602 7.46353 8.50714 8.19172 7.29455 8.84934C7.21446 8.89302 7.14277 8.95059 7.08283 9.01936C6.57919 9.59517 6.12206 10.5335 5.76438 11.4221C5.39548 12.3331 5.09073 13.2955 4.9191 13.9916C4.35131 16.2532 4.04174 18.9686 4.00004 21.5446C3.99871 21.6731 4.02959 21.8 4.08986 21.9135C4.57105 22.8326 5.6088 23.6843 6.64816 24.3066C7.69875 24.9369 8.92577 25.4342 9.9138 25.5304C10.0322 25.5417 10.1516 25.5254 10.2626 25.4828C10.3736 25.4403 10.4733 25.3725 10.5538 25.285C10.8008 25.0171 11.221 24.3916 11.5386 23.9056C11.683 23.6843 11.8193 23.4725 11.9252 23.3041C12.987 23.4966 14.3182 23.6089 16.0024 23.6089C17.6833 23.6089 19.0146 23.4966 20.0764 23.3041C20.1823 23.4741 20.317 23.6843 20.4614 23.904C20.7789 24.3916 21.1992 25.0171 21.4478 25.285C21.5283 25.3725 21.6279 25.4403 21.739 25.4828C21.85 25.5254 21.9694 25.5417 22.0878 25.5304C23.0758 25.4342 24.3012 24.9369 25.3518 24.3066C26.3912 23.6843 27.4289 22.8326 27.9117 21.9135C27.9714 21.7998 28.0017 21.673 27.9999 21.5446C27.9598 18.9686 27.6487 16.2516 27.0841 13.99C26.8572 13.1165 26.5738 12.2587 26.2356 11.4221C25.8779 10.5335 25.4208 9.59357 24.9187 9.01936C24.8583 8.95044 24.7861 8.89286 24.7054 8.84934C23.4944 8.19172 21.4414 7.46353 20.0909 7.31757C20.0236 7.31028 19.9556 7.3119 19.8888 7.32238C19.5865 7.38055 19.3029 7.51159 19.0627 7.70412C18.5247 8.13724 18.0897 8.68456 17.7892 9.30646C17.1947 9.25984 16.5987 9.23683 16.0024 9.23749C15.3576 9.23749 14.7609 9.26155 14.2108 9.30486C13.9101 8.68353 13.4751 8.13678 12.9372 7.70412C12.6975 7.51182 12.4145 7.3808 12.1128 7.32238ZM21.6451 22.8999C21.8708 23.2476 22.1023 23.5914 22.3396 23.9313C22.9748 23.7869 23.7847 23.4501 24.5611 22.9849C25.432 22.4637 26.1233 21.8622 26.4569 21.3537C26.404 18.9382 26.1057 16.4296 25.5908 14.3637C25.3811 13.5591 25.1196 12.7688 24.8081 11.9979C24.4873 11.1991 24.1424 10.5223 23.8425 10.1341C22.7999 9.59357 21.1559 9.02256 20.0844 8.86698C20.0522 8.88653 20.0211 8.90796 19.9914 8.93114C19.8585 9.0357 19.737 9.15397 19.6289 9.28401C19.5657 9.3593 19.5052 9.43688 19.4477 9.51658C19.9369 9.6064 20.3731 9.71387 20.7597 9.83256C21.8568 10.1694 22.6475 10.6345 23.0341 11.1494C23.1566 11.3127 23.2092 11.5181 23.1803 11.7202C23.1515 11.9224 23.0435 12.1047 22.8801 12.2273C22.7992 12.2879 22.7072 12.3321 22.6093 12.3571C22.5113 12.3822 22.4094 12.3878 22.3093 12.3735C22.1072 12.3446 21.9248 12.2366 21.8023 12.0733C21.7076 11.9482 21.2954 11.6081 20.3074 11.3034C19.353 11.0115 17.9496 10.7773 16.0024 10.7773C14.0552 10.7773 12.6501 11.0115 11.6974 11.305C10.7094 11.6097 10.2971 11.9466 10.2025 12.0733C10.1418 12.1542 10.0658 12.2223 9.97885 12.2738C9.89185 12.3253 9.79556 12.3592 9.69547 12.3735C9.49334 12.4024 9.28801 12.3498 9.12466 12.2273C9.04377 12.1666 8.97563 12.0906 8.92412 12.0036C8.87261 11.9166 8.83873 11.8203 8.82444 11.7202C8.79556 11.5181 8.84816 11.3127 8.97068 11.1494C9.35723 10.6329 10.148 10.171 11.2451 9.83416C11.63 9.71386 12.0663 9.608 12.5539 9.51818C12.4962 9.43761 12.4352 9.35948 12.371 9.28401C12.2635 9.15406 12.1425 9.03578 12.0102 8.93114C11.9799 8.90791 11.9483 8.88648 11.9155 8.86698C10.8457 9.02256 9.20165 9.59357 8.15908 10.1341C7.85754 10.5239 7.51429 11.1991 7.1919 11.9979C6.85026 12.848 6.56636 13.7414 6.41078 14.3637C5.8943 16.4296 5.59597 18.9382 5.54464 21.3537C5.87826 21.8638 6.56796 22.4637 7.43891 22.9865C8.21682 23.4517 9.02521 23.7885 9.66198 23.9313C9.90162 23.593 10.1332 23.2492 10.3565 22.8999C9.09739 22.4524 8.42213 21.8381 7.98265 21.1805C7.92662 21.0962 7.88773 21.0018 7.86821 20.9025C7.84869 20.8032 7.84891 20.7011 7.86887 20.6019C7.88883 20.5027 7.92813 20.4084 7.98453 20.3244C8.04093 20.2404 8.11332 20.1683 8.19757 20.1123C8.28183 20.0562 8.37629 20.0174 8.47557 19.9978C8.57485 19.9783 8.67701 19.9785 8.7762 19.9985C8.8754 20.0184 8.96969 20.0577 9.05369 20.1141C9.1377 20.1705 9.20978 20.2429 9.2658 20.3272C9.68283 20.9559 10.7799 22.0691 16.0024 22.0691C21.2264 22.0691 22.3219 20.9559 22.739 20.3272C22.8521 20.157 23.0282 20.0388 23.2286 19.9985C23.4289 19.9582 23.637 19.9991 23.8072 20.1123C23.9774 20.2254 24.0956 20.4015 24.1359 20.6019C24.1762 20.8022 24.1353 21.0103 24.0221 21.1805C23.5826 21.8381 22.9058 22.454 21.6451 22.8999ZM10.5169 15.6405C10.9082 15.2202 11.4392 14.9828 11.9925 14.9796C12.5459 14.9828 13.0768 15.2202 13.4681 15.6405C13.8579 16.0623 14.0776 16.6317 14.0776 17.2252C14.0776 17.8186 13.8579 18.388 13.4681 18.8099C13.0768 19.2301 12.5459 19.4675 11.9925 19.4707C11.7144 19.4677 11.4398 19.4076 11.1859 19.2939C10.932 19.1802 10.7043 19.0154 10.5169 18.8099C10.1217 18.3771 9.90406 17.8112 9.90738 17.2252C9.90738 16.6317 10.1271 16.0623 10.5169 15.6405ZM20.0123 14.9796C19.4589 14.9828 18.928 15.2202 18.5366 15.6405C18.1469 16.0623 17.9271 16.6317 17.9271 17.2252C17.9271 17.8186 18.1469 18.388 18.5366 18.8099C18.928 19.2301 19.4589 19.4675 20.0123 19.4707C20.5656 19.4675 21.0965 19.2301 21.4879 18.8099C21.8777 18.388 22.0974 17.8186 22.0974 17.2252C22.0974 16.6317 21.8777 16.0623 21.4879 15.6405C21.3005 15.4349 21.0727 15.2701 20.8189 15.1564C20.565 15.0428 20.2904 14.9826 20.0123 14.9796Z" fill="#FF3822"/>
<rect x="0.5" y="0.812988" width="31" height="31" stroke="#FF3822"/>
</svg>
