<svg width="32" height="32" viewBox="0 0 186 186" fill="none" xmlns="http://www.w3.org/2000/svg">
<path fill-rule="evenodd" clip-rule="evenodd" d="M37.2795 92.9989C37.2805 82.2761 40.3755 71.7813 46.1931 62.7738C52.0107 53.7663 60.3039 46.6288 70.0774 42.2177C79.8509 37.8066 90.6896 36.3093 101.293 37.9054C111.896 39.5016 121.814 44.1234 129.856 51.2162C137.898 58.3091 143.722 67.5718 146.63 77.8927C149.538 88.2137 149.406 99.1546 146.251 109.403C143.095 119.65 137.049 128.77 128.839 135.667C120.629 142.565 110.603 146.946 99.9638 148.287V106.929H113.894C115.741 106.929 117.512 106.195 118.819 104.889C120.125 103.583 120.859 101.811 120.859 99.9638C120.859 98.1166 120.125 96.3451 118.819 95.0389C117.512 93.7327 115.741 92.9989 113.894 92.9989H99.9638V79.069C99.9638 77.2218 100.698 75.4503 102.004 74.1441C103.31 72.8379 105.082 72.1041 106.929 72.1041H110.411C112.258 72.1041 114.03 71.3703 115.336 70.0641C116.642 68.758 117.376 66.9864 117.376 65.1392C117.376 63.292 116.642 61.5204 115.336 60.2142C114.03 58.9081 112.258 58.1743 110.411 58.1743H106.929C101.387 58.1743 96.0724 60.3757 92.1539 64.2942C88.2354 68.2127 86.034 73.5274 86.034 79.069V92.9989H72.1041C70.2569 92.9989 68.4853 93.7327 67.1792 95.0389C65.873 96.3451 65.1392 98.1166 65.1392 99.9638C65.1392 101.811 65.873 103.583 67.1792 104.889C68.4853 106.195 70.2569 106.929 72.1041 106.929H86.034V148.287C72.5687 146.589 60.1859 140.035 51.2093 129.856C42.2328 119.676 37.2797 106.571 37.2795 92.9989ZM92.9989 162.648C131.466 162.648 162.648 131.466 162.648 92.9989C162.648 54.5316 131.466 23.3496 92.9989 23.3496C54.5316 23.3496 23.3496 54.5316 23.3496 92.9989C23.3496 131.466 54.5316 162.648 92.9989 162.648Z" fill="#FF3822"/>
<rect x="2.90205" y="2.90205" width="179.927" height="179.927" stroke="#FF3822" stroke-width="5.80411"/>
</svg>
