<svg width="291" height="291" viewBox="0 0 401 401" fill="none" xmlns="http://www.w3.org/2000/svg">
<g clip-path="url(#clip0_513_315)">
<path d="M171.944 51.4606C172.825 51.2775 173.706 51.0941 174.587 50.9107C175.849 50.6733 175.849 50.6733 177.137 50.4312C178.266 50.2115 178.266 50.2115 179.419 49.9874C182.199 50.0172 183.374 50.9161 185.447 52.7125C186.438 55.1538 186.365 56.2033 185.366 58.6363C182.964 61.913 178.377 61.9263 174.653 62.5768C159.494 65.564 145.807 70.8703 133.497 80.3239C133.067 80.6507 132.637 80.9775 132.195 81.3141C131.799 81.6317 131.403 81.9493 130.996 82.2765C130.649 82.5533 130.302 82.8301 129.944 83.1153C127.901 85.4763 127.623 87.4241 127.844 90.507C128.003 91.5292 128.171 92.5498 128.348 93.5689C128.435 94.1092 128.521 94.6496 128.61 95.2063C128.886 96.9232 129.175 98.6376 129.465 100.352C129.655 101.519 129.844 102.687 130.033 103.854C130.493 106.709 130.972 109.56 131.45 112.412C135.158 111.736 138.866 111.06 142.687 110.363C142.246 108.272 142.246 108.272 141.797 106.139C141.523 104.784 141.255 103.427 140.987 102.069C140.798 101.129 140.604 100.189 140.403 99.2505C140.115 97.8991 139.849 96.5449 139.587 95.1883C139.337 93.9677 139.337 93.9677 139.083 92.7224C139.072 90.5336 139.072 90.5336 140.341 88.7063C155.495 74.8666 178.974 70.442 198.819 71.2754C213.921 72.1111 213.921 72.1111 218.389 76.0738C219.076 78.1395 219.076 78.1395 219.485 80.6226C219.561 81.0597 219.637 81.4968 219.715 81.9471C219.953 83.3375 220.173 84.7301 220.392 86.1236C220.551 87.0693 220.711 88.0148 220.872 88.9601C221.266 91.2723 221.634 93.5866 222.004 95.9032C225.713 95.2272 229.421 94.5512 233.241 93.8548C232.568 90.4407 231.889 87.0288 231.196 83.6191C230.962 82.4595 230.731 81.2993 230.504 80.1384C230.176 78.4669 229.836 76.7984 229.494 75.1299C229.346 74.3542 229.346 74.3542 229.195 73.5628C228.565 70.5633 227.865 68.6112 225.536 66.5755C223.711 65.7742 222.029 65.1433 220.134 64.5724C219.603 64.4059 219.071 64.2393 218.524 64.0677C213.556 62.601 208.535 61.8777 203.388 61.3738C199.877 60.9861 197.599 60.644 195.245 57.7559C194.86 55.4191 194.715 53.812 195.662 51.6185C197.74 49.6769 199.547 49.3933 202.367 49.4572C203.337 49.5544 204.305 49.663 205.273 49.7812C205.792 49.8417 206.31 49.9022 206.845 49.9646C217.044 51.2534 230.233 53.221 236.952 61.7626C239.011 64.9507 239.627 67.9606 240.251 71.6349C240.407 72.5072 240.407 72.5072 240.566 73.3972C240.895 75.2438 241.215 77.0918 241.535 78.94C241.757 80.1969 241.98 81.4537 242.203 82.7103C242.748 85.7813 243.285 88.8536 243.817 91.9268C244.243 91.8478 244.669 91.7688 245.109 91.6875C255.503 89.7623 265.899 87.8445 276.297 85.9348C281.325 85.0111 286.353 84.085 291.38 83.1529C295.763 82.3402 300.148 81.5321 304.533 80.7296C306.853 80.3049 309.172 79.8779 311.491 79.4452C314.085 78.9612 316.681 78.4877 319.278 78.015C320.038 77.8715 320.798 77.728 321.582 77.5801C330.597 75.9604 338.605 76.3397 346.509 81.3878C353.215 86.5594 355.458 92.5667 356.928 100.602C357.076 101.382 357.224 102.161 357.376 102.965C357.778 105.095 358.174 107.225 358.566 109.357C358.812 110.692 359.059 112.027 359.308 113.362C360.176 118.031 361.036 122.702 361.89 127.373C362.683 131.709 363.493 136.042 364.311 140.373C365.016 144.106 365.707 147.842 366.389 151.58C366.795 153.805 367.208 156.029 367.631 158.252C368.103 160.737 368.553 163.225 368.998 165.714C369.211 166.798 369.211 166.798 369.428 167.904C370.356 173.277 370.439 179.204 367.383 183.971C367.088 184.366 366.794 184.762 366.49 185.169C363.947 189.128 365.684 194.03 366.522 198.361C366.71 199.413 366.897 200.465 367.082 201.518C367.483 203.778 367.897 206.036 368.321 208.292C368.991 211.865 369.634 215.442 370.274 219.019C371.29 224.682 372.325 230.34 373.367 235.998C375.232 246.12 377.064 256.247 378.89 266.376C379.531 269.927 380.18 273.476 380.836 277.025C381.244 279.238 381.647 281.453 382.049 283.668C382.236 284.689 382.424 285.71 382.616 286.731C384.427 296.403 385.218 305.293 379.72 313.973C375.03 320.221 369.27 323.431 361.672 324.774C360.769 324.946 360.769 324.946 359.848 325.121C357.878 325.493 355.906 325.85 353.933 326.205C352.555 326.46 351.178 326.714 349.8 326.97C346.923 327.5 344.044 328.023 341.164 328.542C337.473 329.207 333.785 329.893 330.098 330.585C327.259 331.115 324.417 331.633 321.575 332.147C320.214 332.395 318.854 332.647 317.494 332.903C315.597 333.259 313.698 333.598 311.797 333.933C311.236 334.042 310.675 334.151 310.098 334.263C306.285 334.909 306.285 334.909 303.927 333.725C301.856 331.683 301.938 330.097 301.738 327.229C302.613 325.243 303.283 324.926 305.222 323.862C307.062 323.458 308.893 323.095 310.746 322.758C311.311 322.653 311.876 322.547 312.459 322.439C313.687 322.21 314.915 321.982 316.144 321.756C318.091 321.396 320.037 321.03 321.983 320.663C327.516 319.619 333.049 318.577 338.586 317.557C341.973 316.933 345.357 316.296 348.74 315.65C350.028 315.407 351.316 315.169 352.605 314.936C354.414 314.607 356.218 314.263 358.023 313.915C358.552 313.823 359.081 313.732 359.626 313.637C364.252 312.714 367.32 310.585 370.307 306.96C372.961 302.265 373.034 298.261 372.085 293.083C371.935 292.255 371.785 291.427 371.631 290.574C371.462 289.663 371.293 288.751 371.125 287.84C370.949 286.876 370.773 285.911 370.598 284.947C370.121 282.333 369.641 279.72 369.16 277.108C368.658 274.375 368.159 271.643 367.66 268.91C366.715 263.737 365.766 258.564 364.817 253.392C363.735 247.503 362.658 241.613 361.581 235.724C359.365 223.609 357.145 211.496 354.921 199.384C354.513 199.727 354.104 200.07 353.683 200.424C351.787 202.013 349.888 203.596 347.988 205.18C347.346 205.72 346.703 206.26 346.041 206.816C315.001 232.637 274.878 246.392 236.141 255.868C236.191 256.522 236.241 257.177 236.292 257.852C236.891 266.356 235.329 273.333 229.708 279.919C225.158 284.442 218.934 287.154 212.539 287.488C204.745 287.317 198.433 285.172 192.857 279.621C189.125 275.212 187.373 270.53 185.907 265.026C185.023 265.126 185.023 265.126 184.12 265.228C163.257 267.546 142.43 268.83 121.442 267.771C120.946 267.747 120.45 267.722 119.938 267.697C108.753 267.119 108.753 267.119 105.26 264.703C103.982 260.205 103.982 260.205 105.028 257.574C107.263 255.565 109.741 255.414 112.653 255.482C114.524 255.609 116.391 255.767 118.259 255.93C140.366 257.564 162.541 256.343 184.519 253.668C184.424 253.263 184.329 252.857 184.23 252.439C183.803 250.569 183.408 248.692 183.014 246.815C182.863 246.177 182.713 245.539 182.557 244.882C181.57 240.019 182.114 236.699 184.75 232.455C188.414 228.913 193.027 228.107 197.875 227.216C198.414 227.115 198.953 227.015 199.508 226.911C200.644 226.701 201.781 226.492 202.917 226.285C204.643 225.969 206.367 225.642 208.09 225.315C209.199 225.111 210.308 224.907 211.418 224.704C212.181 224.558 212.181 224.558 212.96 224.408C217.984 223.514 222.755 223.393 227.294 226.065C230.864 229.542 231.695 233.316 232.392 238.112C232.497 238.752 232.601 239.392 232.709 240.052C232.962 241.617 233.203 243.183 233.432 244.752C276.572 233.704 328.209 217.601 356.295 180.694C358.169 177.456 358.686 174.642 358.046 170.968C357.935 170.317 357.823 169.667 357.708 168.996C357.519 167.927 357.519 167.927 357.326 166.837C357.196 166.085 357.065 165.334 356.931 164.56C356.497 162.066 356.057 159.574 355.616 157.082C355.39 155.805 355.39 155.805 355.159 154.503C354.524 150.923 353.888 147.344 353.246 143.766C352.328 138.65 351.424 133.533 350.538 128.411C349.837 124.368 349.115 120.33 348.384 116.292C348.078 114.579 347.778 112.865 347.486 111.149C347.074 108.743 346.637 106.342 346.193 103.941C346.079 103.236 345.964 102.531 345.845 101.805C344.885 96.8092 342.938 93.6471 339.126 90.2596C334.48 87.5703 329.836 87.6474 324.684 88.6208C324.189 88.7088 323.695 88.7969 323.185 88.8876C321.529 89.1837 319.875 89.4893 318.221 89.7948C317.021 90.0115 315.821 90.2276 314.621 90.4431C311.326 91.0368 308.032 91.6388 304.739 92.2421C301.186 92.8915 297.632 93.5333 294.078 94.1761C287.116 95.4366 280.155 96.7043 273.195 97.9748C267.538 99.0072 261.881 100.037 256.223 101.066C255.418 101.212 254.613 101.359 253.784 101.509C252.149 101.807 250.514 102.104 248.879 102.401C233.541 105.19 218.205 107.987 202.87 110.787C188.838 113.348 174.805 115.899 160.77 118.445C146.362 121.058 131.955 123.679 117.549 126.307C109.461 127.783 101.371 129.256 93.2809 130.722C86.3935 131.969 79.5073 133.223 72.6227 134.487C69.11 135.131 65.5968 135.772 62.0819 136.405C58.8636 136.984 55.6472 137.573 52.432 138.168C51.2692 138.382 50.1058 138.593 48.9417 138.799C39.6337 140.418 39.6337 140.418 31.7426 145.442C29.4112 148.917 28.0787 152.705 28.8125 156.847C28.9263 157.498 29.0402 158.149 29.1575 158.82C29.2863 159.537 29.4151 160.254 29.5478 160.992C29.6806 161.745 29.8134 162.498 29.9503 163.274C30.3929 165.776 30.8409 168.277 31.29 170.778C31.4427 171.631 31.5955 172.484 31.7528 173.363C32.4786 177.414 33.207 181.465 33.9396 185.515C34.784 190.183 35.6175 194.854 36.4416 199.526C37.1569 203.576 37.8868 207.624 38.6219 211.671C38.932 213.391 39.2376 215.111 39.5387 216.832C39.9616 219.243 40.4011 221.651 40.8448 224.058C40.9654 224.768 41.086 225.477 41.2103 226.209C42.1357 231.092 43.59 234.361 47.4768 237.648C59.9823 244.705 74.1257 249.3 88.2126 251.911C90.2578 252.512 91.1853 253.078 92.5154 254.733C93.2291 257.165 93.1731 259.404 92.0755 261.685C88.41 263.878 84.2425 263.105 80.3021 262.122C78.7785 261.699 77.2581 261.266 75.7407 260.822C74.9487 260.597 74.1567 260.373 73.3408 260.142C66.7994 258.263 60.3091 256.25 54.0545 253.549C56.4168 266.28 58.7902 279.009 61.1769 291.736C62.2849 297.645 63.3893 303.555 64.485 309.467C65.4404 314.621 66.4026 319.774 67.373 324.926C67.8863 327.652 68.3962 330.379 68.8979 333.107C69.3709 335.679 69.853 338.248 70.3421 340.817C70.5194 341.756 70.6934 342.697 70.8637 343.638C72.0687 350.28 73.5577 356.635 79.1041 360.986C84.5649 363.393 89.0543 363.075 94.792 361.964C95.6166 361.818 96.4412 361.672 97.2908 361.521C99.5623 361.115 101.83 360.695 104.098 360.269C106.55 359.811 109.006 359.372 111.461 358.932C115.71 358.166 119.957 357.389 124.202 356.604C130.344 355.469 136.489 354.354 142.635 353.244C152.612 351.441 162.587 349.626 172.561 347.8C173.455 347.637 173.455 347.637 174.367 347.47C175.574 347.249 176.781 347.028 177.988 346.807C178.586 346.698 179.185 346.588 179.801 346.475C180.699 346.311 180.699 346.311 181.616 346.143C188.275 344.925 194.934 343.709 201.593 342.495C202.488 342.332 202.488 342.332 203.401 342.165C213.343 340.353 223.287 338.548 233.232 336.748C239.364 335.638 245.494 334.52 251.623 333.392C255.819 332.62 260.015 331.854 264.213 331.094C266.636 330.656 269.058 330.213 271.478 329.763C274.1 329.274 276.725 328.801 279.35 328.329C280.117 328.184 280.883 328.038 281.673 327.889C282.376 327.765 283.08 327.641 283.804 327.513C284.41 327.402 285.015 327.291 285.639 327.177C287.952 327.095 289.908 327.712 291.823 329.037C293.092 333.765 293.092 333.765 291.919 335.917C290.355 337.77 289.547 337.989 287.191 338.42C286.125 338.625 286.124 338.625 285.036 338.834C284.253 338.971 283.47 339.108 282.663 339.249C281.833 339.404 281.003 339.56 280.147 339.72C277.84 340.152 275.531 340.568 273.22 340.98C270.73 341.428 268.242 341.891 265.754 342.352C260.877 343.254 255.998 344.14 251.118 345.022C247.149 345.739 243.182 346.462 239.215 347.188C238.369 347.343 238.369 347.343 237.505 347.501C236.359 347.711 235.213 347.921 234.066 348.131C223.308 350.1 212.547 352.052 201.785 354C192.557 355.67 183.333 357.353 174.11 359.047C163.399 361.015 152.687 362.973 141.972 364.918C140.828 365.126 139.684 365.334 138.54 365.541C137.977 365.644 137.414 365.746 136.834 365.851C132.875 366.57 128.918 367.296 124.961 368.024C120.132 368.912 115.301 369.79 110.469 370.657C108.005 371.099 105.542 371.545 103.08 372.003C100.407 372.5 97.7308 372.976 95.0535 373.45C94.2829 373.597 93.5122 373.743 92.7182 373.895C85.4399 375.15 79.2709 374.276 72.8564 370.558C65.5726 365.402 62.1958 358.644 60.6342 350.023C60.5534 349.583 60.4726 349.142 60.3894 348.688C60.1217 347.224 59.8586 345.76 59.5954 344.296C59.4033 343.241 59.2108 342.186 59.0181 341.132C58.6044 338.867 58.1925 336.602 57.7816 334.337C57.1307 330.753 56.4714 327.171 55.8101 323.589C55.6424 322.681 55.6424 322.681 55.4714 321.754C55.243 320.517 55.0145 319.279 54.786 318.041C53.2474 309.707 51.7141 301.372 50.2055 293.032C49.1866 287.399 48.1537 281.769 47.1046 276.142C46.5505 273.167 46.0036 270.19 45.4737 267.211C44.9754 264.409 44.4587 261.611 43.928 258.815C43.7368 257.79 43.5524 256.764 43.3753 255.737C42.5665 249.592 42.5665 249.592 38.9945 244.87C38.5795 244.605 38.1645 244.339 37.7369 244.065C32.4998 240.168 30.8143 233.697 29.7702 227.6C29.6229 226.818 29.4755 226.036 29.3237 225.231C28.8456 222.672 28.3914 220.108 27.9386 217.544C27.6126 215.75 27.2824 213.956 26.9526 212.163C26.2661 208.414 25.5929 204.662 24.9279 200.909C24.1621 196.588 23.3751 192.271 22.5766 187.956C21.8046 183.781 21.0476 179.603 20.2974 175.424C19.9797 173.656 19.6563 171.89 19.33 170.123C18.8754 167.65 18.4382 165.175 18.0053 162.698C17.8694 161.977 17.7335 161.256 17.5935 160.514C16.3062 152.924 17.4765 146.389 21.7306 139.926C27.7042 131.913 35.7642 129.748 45.1471 128.067C45.9665 127.918 46.7859 127.768 47.6302 127.614C49.8655 127.207 52.1013 126.803 54.3374 126.4C56.6785 125.978 59.019 125.551 61.3595 125.125C65.7864 124.32 70.2139 123.519 74.6417 122.719C79.6847 121.807 84.7271 120.891 89.7694 119.976C100.137 118.093 110.505 116.215 120.874 114.339C120.647 113.182 120.647 113.182 120.416 112.002C119.853 109.121 119.304 106.238 118.759 103.354C118.522 102.109 118.281 100.866 118.037 99.6225C117.685 97.8285 117.346 96.0324 117.009 94.2355C116.898 93.6863 116.788 93.1372 116.674 92.5714C115.752 87.5226 116.162 82.7972 119 78.3781C131.441 63.0052 153.176 54.9692 171.944 51.4606ZM150.732 94.5545C151.567 99.1351 152.402 103.716 153.262 108.435C172.457 104.936 191.652 101.437 211.429 97.8312C210.594 93.2506 209.759 88.67 208.898 83.9506C200.495 81.8597 191.29 81.372 182.696 82.5807C182.139 82.6471 181.581 82.7135 181.007 82.782C173.075 83.9539 155.669 87.4159 150.732 94.5545ZM192.926 239.843C193.581 243.806 194.253 247.765 194.942 251.722C195.173 253.067 195.4 254.413 195.622 255.759C195.942 257.701 196.28 259.64 196.622 261.578C196.716 262.175 196.811 262.772 196.909 263.387C197.819 268.391 199.697 271.641 203.872 274.598C208.485 276.615 212.024 277.147 216.875 275.52C221.521 273.376 223.774 269.96 225.569 265.307C225.847 263.358 225.778 262.25 225.427 260.356C225.323 259.787 225.22 259.218 225.113 258.632C224.94 257.716 224.94 257.716 224.765 256.781C224.649 256.153 224.534 255.526 224.415 254.879C224.045 252.872 223.671 250.867 223.297 248.861C223.045 247.502 222.794 246.142 222.544 244.782C221.928 241.448 221.309 238.115 220.687 234.782C218.335 234.097 216.019 234.853 213.652 235.291C213.099 235.391 212.547 235.491 211.977 235.594C210.808 235.807 209.639 236.021 208.471 236.237C206.678 236.567 204.885 236.891 203.091 237.213C201.957 237.421 200.823 237.628 199.689 237.836C199.15 237.933 198.611 238.03 198.056 238.13C195.325 238.568 195.325 238.568 192.926 239.843Z" fill="#FF3822"/>
</g>
<defs>
<clipPath id="clip0_513_315">
<rect width="344" height="344" fill="white" transform="translate(0 61.9336) rotate(-10.3317)"/>
</clipPath>
</defs>
</svg>
