<svg width="35" height="38" viewBox="0 0 65 48" fill="none" xmlns="http://www.w3.org/2000/svg">
<path fill-rule="evenodd" clip-rule="evenodd" d="M22.2596 0.0247346C22.0821 -0.00324662 21.9016 -0.00750937 21.723 0.0120585C18.1695 0.396565 12.761 2.31487 9.56666 4.04726C9.35567 4.16233 9.16682 4.31399 9.00891 4.49515C7.68215 6.01205 6.47793 8.48387 5.53568 10.8247C4.56385 13.2247 3.76104 15.7599 3.30892 17.5937C1.81315 23.5514 0.997662 30.7049 0.887803 37.4908C0.884308 37.8295 0.965655 38.1636 1.12442 38.4627C2.39203 40.8838 5.12582 43.1274 7.86384 44.7669C10.6314 46.4274 13.8638 47.7373 16.4666 47.9908C16.7785 48.0206 17.093 47.9777 17.3855 47.8655C17.678 47.7534 17.9406 47.575 18.1526 47.3443C18.8033 46.6387 19.9103 44.9908 20.7469 43.7105C21.1272 43.1274 21.4863 42.5697 21.7652 42.126C24.5624 42.6331 28.0694 42.9289 32.506 42.9289C36.9342 42.9289 40.4412 42.6331 43.2384 42.126C43.5173 42.5739 43.8722 43.1274 44.2525 43.7063C45.0891 44.9908 46.1962 46.6387 46.8511 47.3443C47.0631 47.575 47.3256 47.7534 47.6181 47.8655C47.9106 47.9777 48.2251 48.0206 48.537 47.9908C51.1398 47.7373 54.368 46.4274 57.1356 44.7669C59.8736 43.1274 62.6074 40.8838 63.8792 38.4627C64.0365 38.1632 64.1164 37.8291 64.1116 37.4908C64.006 30.7049 63.1863 23.5472 61.6989 17.5895C61.1013 15.2885 60.3546 13.0288 59.4637 10.8247C58.5215 8.48387 57.3172 6.00782 55.9947 4.49515C55.8355 4.31359 55.6452 4.16192 55.4327 4.04726C52.2426 2.31487 46.8342 0.396565 43.2764 0.0120585C43.0992 -0.00713462 42.9202 -0.00287246 42.744 0.0247346C41.9477 0.177991 41.2008 0.523177 40.568 1.03037C39.1506 2.17135 38.0047 3.61318 37.2131 5.25148C35.6471 5.12865 34.0768 5.06804 32.506 5.06979C30.8075 5.06979 29.2356 5.13317 27.7863 5.24726C26.9942 3.61048 25.8483 2.17014 24.4314 1.03037C23.7999 0.523795 23.0544 0.178642 22.2596 0.0247346ZM47.3708 41.0613C47.9654 41.977 48.5754 42.8828 49.2004 43.7782C50.8736 43.3979 53.0074 42.5105 55.0525 41.2852C57.3468 39.912 59.1679 38.3275 60.0468 36.988C59.9074 30.6247 59.1215 24.0162 57.7651 18.574C57.2126 16.4543 56.5239 14.3725 55.7032 12.3416C54.8581 10.2374 53.9496 8.45429 53.1595 7.43176C50.413 6.00782 46.0821 4.5036 43.2595 4.09374C43.1746 4.14525 43.0928 4.20169 43.0145 4.26275C42.6644 4.53819 42.3443 4.84977 42.0595 5.19233C41.893 5.39068 41.7337 5.59504 41.5821 5.805C42.8708 6.04162 44.0201 6.32472 45.0384 6.6374C47.9285 7.52472 50.0116 8.75007 51.0299 10.1064C51.3527 10.5367 51.4913 11.0776 51.4152 11.6101C51.3391 12.1426 51.0546 12.6231 50.6243 12.9458C50.4112 13.1056 50.1688 13.2219 49.9108 13.288C49.6528 13.3541 49.3842 13.3687 49.1206 13.3311C48.5881 13.255 48.1076 12.9705 47.7849 12.5402C47.5356 12.2106 46.4497 11.3148 43.8469 10.512C41.3328 9.74302 37.6356 9.12612 32.506 9.12612C27.3765 9.12612 23.6751 9.74302 21.1652 10.5163C18.5624 11.3191 17.4765 12.2064 17.2272 12.5402C17.0674 12.7533 16.8672 12.9328 16.638 13.0685C16.4088 13.2042 16.1552 13.2934 15.8915 13.3311C15.359 13.4072 14.8181 13.2686 14.3878 12.9458C14.1747 12.786 13.9952 12.5858 13.8595 12.3566C13.7238 12.1275 13.6346 11.8738 13.5969 11.6101C13.5208 11.0776 13.6594 10.5367 13.9821 10.1064C15.0004 8.74584 17.0835 7.52894 19.9737 6.64162C20.9878 6.32472 22.137 6.04585 23.4216 5.80923C23.2697 5.59696 23.109 5.39115 22.9399 5.19233C22.6564 4.84999 22.3378 4.53842 21.9892 4.26275C21.9095 4.20156 21.8262 4.14512 21.7399 4.09374C18.9216 4.5036 14.5906 6.00782 11.8441 7.43176C11.0498 8.45852 10.1455 10.2374 9.29623 12.3416C8.39624 14.581 7.64835 16.9346 7.23849 18.574C5.87793 24.0162 5.09202 30.6247 4.95681 36.988C5.83568 38.3317 7.65258 39.912 9.94694 41.2894C11.9962 42.5148 14.1258 43.4021 15.8033 43.7782C16.4345 42.8871 17.0446 41.9812 17.6328 41.0613C14.3159 39.8824 12.5371 38.2641 11.3793 36.5317C11.2317 36.3097 11.1293 36.0609 11.0779 35.7993C11.0264 35.5378 11.027 35.2687 11.0796 35.0074C11.1322 34.7461 11.2357 34.4977 11.3843 34.2764C11.5329 34.0551 11.7236 33.8652 11.9455 33.7176C12.1675 33.57 12.4163 33.4676 12.6779 33.4162C12.9394 33.3647 13.2085 33.3653 13.4698 33.4179C13.7311 33.4705 13.9795 33.574 14.2008 33.7226C14.4221 33.8712 14.612 34.0619 14.7596 34.2838C15.8582 35.9401 18.7483 38.8725 32.506 38.8725C46.268 38.8725 49.1539 35.9401 50.2525 34.2838C50.5506 33.8356 51.0145 33.5241 51.5423 33.4179C52.07 33.3117 52.6183 33.4195 53.0666 33.7176C53.5148 34.0157 53.8263 34.4796 53.9325 35.0074C54.0387 35.5351 53.9308 36.0834 53.6328 36.5317C52.475 38.2641 50.6919 39.8866 47.3708 41.0613ZM18.0554 21.9374C19.0864 20.8303 20.4849 20.205 21.9427 20.1965C23.4004 20.205 24.799 20.8303 25.83 21.9374C26.8568 23.0486 27.4356 24.5486 27.4356 26.112C27.4356 27.6754 26.8568 29.1754 25.83 30.2866C24.799 31.3937 23.4004 32.019 21.9427 32.0275C21.2099 32.0197 20.4866 31.8612 19.8178 31.5617C19.149 31.2622 18.5491 30.8282 18.0554 30.2866C17.0143 29.1465 16.441 27.6559 16.4497 26.112C16.4497 24.5486 17.0286 23.0486 18.0554 21.9374ZM43.0694 20.1965C41.6117 20.205 40.2131 20.8303 39.1821 21.9374C38.1553 23.0486 37.5764 24.5486 37.5764 26.112C37.5764 27.6754 38.1553 29.1754 39.1821 30.2866C40.2131 31.3937 41.6117 32.019 43.0694 32.0275C44.5271 32.019 45.9257 31.3937 46.9567 30.2866C47.9835 29.1754 48.5623 27.6754 48.5623 26.112C48.5623 24.5486 47.9835 23.0486 46.9567 21.9374C46.463 21.3958 45.8631 20.9618 45.1943 20.6623C44.5255 20.3628 43.8022 20.2042 43.0694 20.1965Z" fill="white"/>
</svg>
